<svg xmlns="http://www.w3.org/2000/svg" role="img" viewBox="0 0 1440 436" width="1440" height="436" data-renderer-version="0.2.2" data-theme-version="0.2.0" data-layout-version="0.2.0">
  <title>COMPOSITE RANGE PARTITIONS</title>
  <desc>Interactive SQL BNF diagram for COMPOSITE RANGE PARTITIONS. Blue symbols link to supporting components.</desc>
  <style>
    .background { fill: #ffffff; }
    .frame { fill: #f8fafc; stroke: #cbd5e1; stroke-width: 1.25; }
    .title-band { fill: #111827; }
    .component-title { fill: #ffffff; font: 700 20px Arial, sans-serif; }
    .component-subtitle { fill: #d1d5db; font: 12px Arial, sans-serif; }
    .rail { stroke: #9ca3af; stroke-width: 1.35; }
    .line-number { fill: #64748b; font: 12px Arial, sans-serif; }
    .token { stroke-width: 1.25; }
    .token-label { fill: #111827; font: 13px Arial, sans-serif; pointer-events: none; }
    .token-keyword { fill: #f1f5f9; stroke: #64748b; }
    .token-reference { fill: #dbeafe; stroke: #2563eb; }
    .token-variable { fill: #fff7ed; stroke: #c2410c; }
    .token-literal { fill: #ecfdf5; stroke: #047857; }
    .token-operator { fill: #ffffff; stroke: #94a3b8; }
    .component-link:hover .token-reference { fill: #bfdbfe; stroke: #1d4ed8; }
    .truncated { fill: #9f1239; font: 13px Arial, sans-serif; }
  </style>
  <rect class="background" x="0" y="0" width="1440" height="436"/>
  <rect class="frame" x="12" y="12" width="1416" height="412" rx="6"/>
  <rect class="title-band" x="12" y="12" width="1416" height="50" rx="6"/>
  <text class="component-title" x="28" y="40">COMPOSITE RANGE PARTITIONS</text>
  <text class="component-subtitle" x="1412" y="40" text-anchor="end">7 syntax lines · 4 references</text>
  <text class="line-number" x="28" y="114" text-anchor="start">1</text>
<line class="rail" x1="48" y1="109" x2="1412" y2="109"/>
<g id="tok-1-1" class="token-group" data-kind="keyword"><title>PARTITION</title><rect class="token token-keyword" x="76" y="94" width="88" height="30" rx="4"/><text class="token-label" x="120.0" y="114" text-anchor="middle">PARTITION</text></g>
<g id="tok-1-2" class="token-group" data-kind="keyword"><title>BY</title><rect class="token token-keyword" x="172" y="94" width="54" height="30" rx="4"/><text class="token-label" x="199.0" y="114" text-anchor="middle">BY</text></g>
<g id="tok-1-3" class="token-group" data-kind="keyword"><title>RANGE</title><rect class="token token-keyword" x="234" y="94" width="56" height="30" rx="4"/><text class="token-label" x="262.0" y="114" text-anchor="middle">RANGE</text></g>
<g id="tok-1-4" class="token-group" data-kind="operator"><title>(</title><rect class="token token-operator" x="298" y="94" width="38" height="30" rx="4"/><text class="token-label" x="317.0" y="114" text-anchor="middle">(</text></g>
<g id="tok-1-5" class="token-group" data-kind="variable"><title>column</title><rect class="token token-variable" x="344" y="94" width="64" height="30" rx="4"/><text class="token-label" x="376.0" y="114" text-anchor="middle">column</text></g>
<g id="tok-1-6" class="token-group" data-kind="operator"><title>[</title><rect class="token token-operator" x="416" y="94" width="38" height="30" rx="4"/><text class="token-label" x="435.0" y="114" text-anchor="middle">[</text></g>
<g id="tok-1-7" class="token-group" data-kind="operator"><title>,</title><rect class="token token-operator" x="462" y="94" width="34" height="30" rx="4"/><text class="token-label" x="479.0" y="114" text-anchor="middle">,</text></g>
<g id="tok-1-8" class="token-group" data-kind="variable"><title>column</title><rect class="token token-variable" x="504" y="94" width="64" height="30" rx="4"/><text class="token-label" x="536.0" y="114" text-anchor="middle">column</text></g>
<g id="tok-1-9" class="token-group" data-kind="operator"><title>]</title><rect class="token token-operator" x="576" y="94" width="38" height="30" rx="4"/><text class="token-label" x="595.0" y="114" text-anchor="middle">]</text></g>
<g id="tok-1-10" class="token-group" data-kind="operator"><title>.</title><rect class="token token-operator" x="622" y="94" width="34" height="30" rx="4"/><text class="token-label" x="639.0" y="114" text-anchor="middle">.</text></g>
<g id="tok-1-11" class="token-group" data-kind="operator"><title>.</title><rect class="token token-operator" x="664" y="94" width="34" height="30" rx="4"/><text class="token-label" x="681.0" y="114" text-anchor="middle">.</text></g>
<g id="tok-1-12" class="token-group" data-kind="operator"><title>.</title><rect class="token token-operator" x="706" y="94" width="34" height="30" rx="4"/><text class="token-label" x="723.0" y="114" text-anchor="middle">.</text></g>
<g id="tok-1-13" class="token-group" data-kind="operator"><title>)</title><rect class="token token-operator" x="748" y="94" width="38" height="30" rx="4"/><text class="token-label" x="767.0" y="114" text-anchor="middle">)</text></g>
<text class="line-number" x="28" y="160" text-anchor="start">2</text>
<line class="rail" x1="48" y1="155" x2="1412" y2="155"/>
<g id="tok-2-14" class="token-group" data-kind="operator"><title>[</title><rect class="token token-operator" x="104" y="140" width="38" height="30" rx="4"/><text class="token-label" x="123.0" y="160" text-anchor="middle">[</text></g>
<g id="tok-2-15" class="token-group" data-kind="keyword"><title>INTERVAL</title><rect class="token token-keyword" x="150" y="140" width="80" height="30" rx="4"/><text class="token-label" x="190.0" y="160" text-anchor="middle">INTERVAL</text></g>
<g id="tok-2-16" class="token-group" data-kind="operator"><title>(</title><rect class="token token-operator" x="238" y="140" width="38" height="30" rx="4"/><text class="token-label" x="257.0" y="160" text-anchor="middle">(</text></g>
<g id="tok-2-17" class="token-group" data-kind="variable"><title>expr</title><rect class="token token-variable" x="284" y="140" width="54" height="30" rx="4"/><text class="token-label" x="311.0" y="160" text-anchor="middle">expr</text></g>
<g id="tok-2-18" class="token-group" data-kind="operator"><title>)</title><rect class="token token-operator" x="346" y="140" width="38" height="30" rx="4"/><text class="token-label" x="365.0" y="160" text-anchor="middle">)</text></g>
<g id="tok-2-19" class="token-group" data-kind="operator"><title>[</title><rect class="token token-operator" x="392" y="140" width="38" height="30" rx="4"/><text class="token-label" x="411.0" y="160" text-anchor="middle">[</text></g>
<g id="tok-2-20" class="token-group" data-kind="keyword"><title>STORE</title><rect class="token token-keyword" x="438" y="140" width="56" height="30" rx="4"/><text class="token-label" x="466.0" y="160" text-anchor="middle">STORE</text></g>
<g id="tok-2-21" class="token-group" data-kind="keyword"><title>IN</title><rect class="token token-keyword" x="502" y="140" width="54" height="30" rx="4"/><text class="token-label" x="529.0" y="160" text-anchor="middle">IN</text></g>
<g id="tok-2-22" class="token-group" data-kind="operator"><title>(</title><rect class="token token-operator" x="564" y="140" width="38" height="30" rx="4"/><text class="token-label" x="583.0" y="160" text-anchor="middle">(</text></g>
<g id="tok-2-23" class="token-group" data-kind="variable"><title>tablespace</title><rect class="token token-variable" x="610" y="140" width="96" height="30" rx="4"/><text class="token-label" x="658.0" y="160" text-anchor="middle">tablespace</text></g>
<g id="tok-2-24" class="token-group" data-kind="operator"><title>[</title><rect class="token token-operator" x="714" y="140" width="38" height="30" rx="4"/><text class="token-label" x="733.0" y="160" text-anchor="middle">[</text></g>
<g id="tok-2-25" class="token-group" data-kind="operator"><title>,</title><rect class="token token-operator" x="760" y="140" width="34" height="30" rx="4"/><text class="token-label" x="777.0" y="160" text-anchor="middle">,</text></g>
<g id="tok-2-26" class="token-group" data-kind="variable"><title>tablespace</title><rect class="token token-variable" x="802" y="140" width="96" height="30" rx="4"/><text class="token-label" x="850.0" y="160" text-anchor="middle">tablespace</text></g>
<g id="tok-2-27" class="token-group" data-kind="operator"><title>]</title><rect class="token token-operator" x="906" y="140" width="38" height="30" rx="4"/><text class="token-label" x="925.0" y="160" text-anchor="middle">]</text></g>
<g id="tok-2-28" class="token-group" data-kind="operator"><title>.</title><rect class="token token-operator" x="952" y="140" width="34" height="30" rx="4"/><text class="token-label" x="969.0" y="160" text-anchor="middle">.</text></g>
<g id="tok-2-29" class="token-group" data-kind="operator"><title>.</title><rect class="token token-operator" x="994" y="140" width="34" height="30" rx="4"/><text class="token-label" x="1011.0" y="160" text-anchor="middle">.</text></g>
<g id="tok-2-30" class="token-group" data-kind="operator"><title>.</title><rect class="token token-operator" x="1036" y="140" width="34" height="30" rx="4"/><text class="token-label" x="1053.0" y="160" text-anchor="middle">.</text></g>
<g id="tok-2-31" class="token-group" data-kind="operator"><title>)</title><rect class="token token-operator" x="1078" y="140" width="38" height="30" rx="4"/><text class="token-label" x="1097.0" y="160" text-anchor="middle">)</text></g>
<g id="tok-2-32" class="token-group" data-kind="operator"><title>]</title><rect class="token token-operator" x="1124" y="140" width="38" height="30" rx="4"/><text class="token-label" x="1143.0" y="160" text-anchor="middle">]</text></g>
<g id="tok-2-33" class="token-group" data-kind="operator"><title>]</title><rect class="token token-operator" x="1170" y="140" width="38" height="30" rx="4"/><text class="token-label" x="1189.0" y="160" text-anchor="middle">]</text></g>
<text class="line-number" x="28" y="206" text-anchor="start">3</text>
<line class="rail" x1="48" y1="201" x2="1412" y2="201"/>
<g id="tok-3-34" class="token-group" data-kind="operator"><title>{</title><rect class="token token-operator" x="104" y="186" width="38" height="30" rx="4"/><text class="token-label" x="123.0" y="206" text-anchor="middle">{</text></g>
<a href="components/subpartition-by-range.html" target="_parent" class="component-link"><g id="tok-3-35" class="token-group" data-kind="reference"><title>SUBPARTITION BY RANGE</title><rect class="token token-reference" x="150" y="186" width="184" height="30" rx="4"/><text class="token-label" x="242.0" y="206" text-anchor="middle">subpartition_by_range</text></g></a>
<text class="line-number" x="28" y="252" text-anchor="start">4</text>
<line class="rail" x1="48" y1="247" x2="1412" y2="247"/>
<g id="tok-4-36" class="token-group" data-kind="operator"><title>|</title><rect class="token token-operator" x="104" y="232" width="34" height="30" rx="4"/><text class="token-label" x="121.0" y="252" text-anchor="middle">|</text></g>
<a href="components/subpartition-by-list.html" target="_parent" class="component-link"><g id="tok-4-37" class="token-group" data-kind="reference"><title>SUBPARTITION BY LIST</title><rect class="token token-reference" x="146" y="232" width="176" height="30" rx="4"/><text class="token-label" x="234.0" y="252" text-anchor="middle">subpartition_by_list</text></g></a>
<text class="line-number" x="28" y="298" text-anchor="start">5</text>
<line class="rail" x1="48" y1="293" x2="1412" y2="293"/>
<g id="tok-5-38" class="token-group" data-kind="operator"><title>|</title><rect class="token token-operator" x="104" y="278" width="34" height="30" rx="4"/><text class="token-label" x="121.0" y="298" text-anchor="middle">|</text></g>
<a href="components/subpartition-by-hash.html" target="_parent" class="component-link"><g id="tok-5-39" class="token-group" data-kind="reference"><title>SUBPARTITION BY HASH</title><rect class="token token-reference" x="146" y="278" width="176" height="30" rx="4"/><text class="token-label" x="234.0" y="298" text-anchor="middle">subpartition_by_hash</text></g></a>
<text class="line-number" x="28" y="344" text-anchor="start">6</text>
<line class="rail" x1="48" y1="339" x2="1412" y2="339"/>
<g id="tok-6-40" class="token-group" data-kind="operator"><title>}</title><rect class="token token-operator" x="104" y="324" width="38" height="30" rx="4"/><text class="token-label" x="123.0" y="344" text-anchor="middle">}</text></g>
<text class="line-number" x="28" y="390" text-anchor="start">7</text>
<line class="rail" x1="48" y1="385" x2="1412" y2="385"/>
<g id="tok-7-41" class="token-group" data-kind="operator"><title>(</title><rect class="token token-operator" x="76" y="370" width="38" height="30" rx="4"/><text class="token-label" x="95.0" y="390" text-anchor="middle">(</text></g>
<a href="components/range-partition-desc.html" target="_parent" class="component-link"><g id="tok-7-42" class="token-group" data-kind="reference"><title>RANGE PARTITION DESC</title><rect class="token token-reference" x="122" y="370" width="176" height="30" rx="4"/><text class="token-label" x="210.0" y="390" text-anchor="middle">range_partition_desc</text></g></a>
<g id="tok-7-43" class="token-group" data-kind="operator"><title>[</title><rect class="token token-operator" x="306" y="370" width="38" height="30" rx="4"/><text class="token-label" x="325.0" y="390" text-anchor="middle">[</text></g>
<g id="tok-7-44" class="token-group" data-kind="operator"><title>,</title><rect class="token token-operator" x="352" y="370" width="34" height="30" rx="4"/><text class="token-label" x="369.0" y="390" text-anchor="middle">,</text></g>
<a href="components/range-partition-desc.html" target="_parent" class="component-link"><g id="tok-7-45" class="token-group" data-kind="reference"><title>RANGE PARTITION DESC</title><rect class="token token-reference" x="394" y="370" width="176" height="30" rx="4"/><text class="token-label" x="482.0" y="390" text-anchor="middle">range_partition_desc</text></g></a>
<g id="tok-7-46" class="token-group" data-kind="operator"><title>]</title><rect class="token token-operator" x="578" y="370" width="38" height="30" rx="4"/><text class="token-label" x="597.0" y="390" text-anchor="middle">]</text></g>
<g id="tok-7-47" class="token-group" data-kind="operator"><title>.</title><rect class="token token-operator" x="624" y="370" width="34" height="30" rx="4"/><text class="token-label" x="641.0" y="390" text-anchor="middle">.</text></g>
<g id="tok-7-48" class="token-group" data-kind="operator"><title>.</title><rect class="token token-operator" x="666" y="370" width="34" height="30" rx="4"/><text class="token-label" x="683.0" y="390" text-anchor="middle">.</text></g>
<g id="tok-7-49" class="token-group" data-kind="operator"><title>.</title><rect class="token token-operator" x="708" y="370" width="34" height="30" rx="4"/><text class="token-label" x="725.0" y="390" text-anchor="middle">.</text></g>
<g id="tok-7-50" class="token-group" data-kind="operator"><title>)</title><rect class="token token-operator" x="750" y="370" width="38" height="30" rx="4"/><text class="token-label" x="769.0" y="390" text-anchor="middle">)</text></g>
</svg>
