<svg xmlns="http://www.w3.org/2000/svg" role="img" viewBox="0 0 1440 436" width="1440" height="436" data-renderer-version="0.2.2" data-theme-version="0.2.0" data-layout-version="0.2.0">
  <title>ALTER OVERFLOW CLAUSE</title>
  <desc>Interactive SQL BNF diagram for ALTER OVERFLOW CLAUSE. Blue symbols link to supporting components.</desc>
  <style>
    .background { fill: #ffffff; }
    .frame { fill: #f8fafc; stroke: #cbd5e1; stroke-width: 1.25; }
    .title-band { fill: #111827; }
    .component-title { fill: #ffffff; font: 700 20px Arial, sans-serif; }
    .component-subtitle { fill: #d1d5db; font: 12px Arial, sans-serif; }
    .rail { stroke: #9ca3af; stroke-width: 1.35; }
    .line-number { fill: #64748b; font: 12px Arial, sans-serif; }
    .token { stroke-width: 1.25; }
    .token-label { fill: #111827; font: 13px Arial, sans-serif; pointer-events: none; }
    .token-keyword { fill: #f1f5f9; stroke: #64748b; }
    .token-reference { fill: #dbeafe; stroke: #2563eb; }
    .token-variable { fill: #fff7ed; stroke: #c2410c; }
    .token-literal { fill: #ecfdf5; stroke: #047857; }
    .token-operator { fill: #ffffff; stroke: #94a3b8; }
    .component-link:hover .token-reference { fill: #bfdbfe; stroke: #1d4ed8; }
    .truncated { fill: #9f1239; font: 13px Arial, sans-serif; }
  </style>
  <rect class="background" x="0" y="0" width="1440" height="436"/>
  <rect class="frame" x="12" y="12" width="1416" height="412" rx="6"/>
  <rect class="title-band" x="12" y="12" width="1416" height="50" rx="6"/>
  <text class="component-title" x="28" y="40">ALTER OVERFLOW CLAUSE</text>
  <text class="component-subtitle" x="1412" y="40" text-anchor="end">7 syntax lines · 3 references</text>
  <text class="line-number" x="28" y="114" text-anchor="start">1</text>
<line class="rail" x1="48" y1="109" x2="1412" y2="109"/>
<g id="tok-1-1" class="token-group" data-kind="operator"><title>|</title><rect class="token token-operator" x="76" y="94" width="34" height="30" rx="4"/><text class="token-label" x="93.0" y="114" text-anchor="middle">|</text></g>
<g id="tok-1-2" class="token-group" data-kind="keyword"><title>OVERFLOW</title><rect class="token token-keyword" x="118" y="94" width="80" height="30" rx="4"/><text class="token-label" x="158.0" y="114" text-anchor="middle">OVERFLOW</text></g>
<text class="line-number" x="28" y="160" text-anchor="start">2</text>
<line class="rail" x1="48" y1="155" x2="1412" y2="155"/>
<g id="tok-2-3" class="token-group" data-kind="operator"><title>{</title><rect class="token token-operator" x="146" y="140" width="38" height="30" rx="4"/><text class="token-label" x="165.0" y="160" text-anchor="middle">{</text></g>
<g id="tok-2-4" class="token-group" data-kind="variable"><title>segment_attributes_clause</title><rect class="token token-variable" x="192" y="140" width="216" height="30" rx="4"/><text class="token-label" x="300.0" y="160" text-anchor="middle">segment_attributes_clause</text></g>
<text class="line-number" x="28" y="206" text-anchor="start">3</text>
<line class="rail" x1="48" y1="201" x2="1412" y2="201"/>
<g id="tok-3-5" class="token-group" data-kind="operator"><title>|</title><rect class="token token-operator" x="146" y="186" width="34" height="30" rx="4"/><text class="token-label" x="163.0" y="206" text-anchor="middle">|</text></g>
<a href="components/allocate-extent-clause.html" target="_parent" class="component-link"><g id="tok-3-6" class="token-group" data-kind="reference"><title>ALLOCATE EXTENT CLAUSE</title><rect class="token token-reference" x="188" y="186" width="192" height="30" rx="4"/><text class="token-label" x="284.0" y="206" text-anchor="middle">allocate_extent_clause</text></g></a>
<text class="line-number" x="28" y="252" text-anchor="start">4</text>
<line class="rail" x1="48" y1="247" x2="1412" y2="247"/>
<g id="tok-4-7" class="token-group" data-kind="operator"><title>|</title><rect class="token token-operator" x="146" y="232" width="34" height="30" rx="4"/><text class="token-label" x="163.0" y="252" text-anchor="middle">|</text></g>
<a href="components/shrink-clause.html" target="_parent" class="component-link"><g id="tok-4-8" class="token-group" data-kind="reference"><title>SHRINK CLAUSE</title><rect class="token token-reference" x="188" y="232" width="120" height="30" rx="4"/><text class="token-label" x="248.0" y="252" text-anchor="middle">shrink_clause</text></g></a>
<text class="line-number" x="28" y="298" text-anchor="start">5</text>
<line class="rail" x1="48" y1="293" x2="1412" y2="293"/>
<g id="tok-5-9" class="token-group" data-kind="operator"><title>|</title><rect class="token token-operator" x="146" y="278" width="34" height="30" rx="4"/><text class="token-label" x="163.0" y="298" text-anchor="middle">|</text></g>
<a href="components/deallocate-unused-clause.html" target="_parent" class="component-link"><g id="tok-5-10" class="token-group" data-kind="reference"><title>DEALLOCATE UNUSED CLAUSE</title><rect class="token token-reference" x="188" y="278" width="208" height="30" rx="4"/><text class="token-label" x="292.0" y="298" text-anchor="middle">deallocate_unused_clause</text></g></a>
<text class="line-number" x="28" y="344" text-anchor="start">6</text>
<line class="rail" x1="48" y1="339" x2="1412" y2="339"/>
<g id="tok-6-11" class="token-group" data-kind="operator"><title>}</title><rect class="token token-operator" x="146" y="324" width="38" height="30" rx="4"/><text class="token-label" x="165.0" y="344" text-anchor="middle">}</text></g>
<g id="tok-6-12" class="token-group" data-kind="operator"><title>.</title><rect class="token token-operator" x="192" y="324" width="34" height="30" rx="4"/><text class="token-label" x="209.0" y="344" text-anchor="middle">.</text></g>
<g id="tok-6-13" class="token-group" data-kind="operator"><title>.</title><rect class="token token-operator" x="234" y="324" width="34" height="30" rx="4"/><text class="token-label" x="251.0" y="344" text-anchor="middle">.</text></g>
<g id="tok-6-14" class="token-group" data-kind="operator"><title>.</title><rect class="token token-operator" x="276" y="324" width="34" height="30" rx="4"/><text class="token-label" x="293.0" y="344" text-anchor="middle">.</text></g>
<text class="line-number" x="28" y="390" text-anchor="start">7</text>
<line class="rail" x1="48" y1="385" x2="1412" y2="385"/>
<g id="tok-7-15" class="token-group" data-kind="operator"><title>}</title><rect class="token token-operator" x="76" y="370" width="38" height="30" rx="4"/><text class="token-label" x="95.0" y="390" text-anchor="middle">}</text></g>
</svg>
