<svg xmlns="http://www.w3.org/2000/svg" role="img" viewBox="0 0 1440 206" width="1440" height="206" data-renderer-version="0.2.2" data-theme-version="0.2.0" data-layout-version="0.2.0">
  <title>ALTER INMEMORY JOIN GROUP</title>
  <desc>Interactive SQL BNF diagram for ALTER INMEMORY JOIN GROUP. Blue symbols link to supporting components.</desc>
  <style>
    .background { fill: #ffffff; }
    .frame { fill: #f8fafc; stroke: #cbd5e1; stroke-width: 1.25; }
    .title-band { fill: #111827; }
    .component-title { fill: #ffffff; font: 700 20px Arial, sans-serif; }
    .component-subtitle { fill: #d1d5db; font: 12px Arial, sans-serif; }
    .rail { stroke: #9ca3af; stroke-width: 1.35; }
    .line-number { fill: #64748b; font: 12px Arial, sans-serif; }
    .token { stroke-width: 1.25; }
    .token-label { fill: #111827; font: 13px Arial, sans-serif; pointer-events: none; }
    .token-keyword { fill: #f1f5f9; stroke: #64748b; }
    .token-reference { fill: #dbeafe; stroke: #2563eb; }
    .token-variable { fill: #fff7ed; stroke: #c2410c; }
    .token-literal { fill: #ecfdf5; stroke: #047857; }
    .token-operator { fill: #ffffff; stroke: #94a3b8; }
    .component-link:hover .token-reference { fill: #bfdbfe; stroke: #1d4ed8; }
    .truncated { fill: #9f1239; font: 13px Arial, sans-serif; }
  </style>
  <rect class="background" x="0" y="0" width="1440" height="206"/>
  <rect class="frame" x="12" y="12" width="1416" height="182" rx="6"/>
  <rect class="title-band" x="12" y="12" width="1416" height="50" rx="6"/>
  <text class="component-title" x="28" y="40">ALTER INMEMORY JOIN GROUP</text>
  <text class="component-subtitle" x="1412" y="40" text-anchor="end">2 syntax lines · 0 references</text>
  <text class="line-number" x="28" y="114" text-anchor="start">1</text>
<line class="rail" x1="48" y1="109" x2="1412" y2="109"/>
<g id="tok-1-1" class="token-group" data-kind="keyword"><title>ALTER</title><rect class="token token-keyword" x="76" y="94" width="56" height="30" rx="4"/><text class="token-label" x="104.0" y="114" text-anchor="middle">ALTER</text></g>
<g id="tok-1-2" class="token-group" data-kind="keyword"><title>INMEMORY</title><rect class="token token-keyword" x="140" y="94" width="80" height="30" rx="4"/><text class="token-label" x="180.0" y="114" text-anchor="middle">INMEMORY</text></g>
<g id="tok-1-3" class="token-group" data-kind="keyword"><title>JOIN</title><rect class="token token-keyword" x="228" y="94" width="54" height="30" rx="4"/><text class="token-label" x="255.0" y="114" text-anchor="middle">JOIN</text></g>
<g id="tok-1-4" class="token-group" data-kind="keyword"><title>GROUP</title><rect class="token token-keyword" x="290" y="94" width="56" height="30" rx="4"/><text class="token-label" x="318.0" y="114" text-anchor="middle">GROUP</text></g>
<g id="tok-1-5" class="token-group" data-kind="operator"><title>[</title><rect class="token token-operator" x="354" y="94" width="38" height="30" rx="4"/><text class="token-label" x="373.0" y="114" text-anchor="middle">[</text></g>
<g id="tok-1-6" class="token-group" data-kind="keyword"><title>IF</title><rect class="token token-keyword" x="400" y="94" width="54" height="30" rx="4"/><text class="token-label" x="427.0" y="114" text-anchor="middle">IF</text></g>
<g id="tok-1-7" class="token-group" data-kind="keyword"><title>EXISTS</title><rect class="token token-keyword" x="462" y="94" width="64" height="30" rx="4"/><text class="token-label" x="494.0" y="114" text-anchor="middle">EXISTS</text></g>
<g id="tok-1-8" class="token-group" data-kind="operator"><title>]</title><rect class="token token-operator" x="534" y="94" width="38" height="30" rx="4"/><text class="token-label" x="553.0" y="114" text-anchor="middle">]</text></g>
<g id="tok-1-9" class="token-group" data-kind="operator"><title>[</title><rect class="token token-operator" x="580" y="94" width="38" height="30" rx="4"/><text class="token-label" x="599.0" y="114" text-anchor="middle">[</text></g>
<g id="tok-1-10" class="token-group" data-kind="variable"><title>schema</title><rect class="token token-variable" x="626" y="94" width="64" height="30" rx="4"/><text class="token-label" x="658.0" y="114" text-anchor="middle">schema</text></g>
<g id="tok-1-11" class="token-group" data-kind="operator"><title>.</title><rect class="token token-operator" x="698" y="94" width="34" height="30" rx="4"/><text class="token-label" x="715.0" y="114" text-anchor="middle">.</text></g>
<g id="tok-1-12" class="token-group" data-kind="operator"><title>]</title><rect class="token token-operator" x="740" y="94" width="38" height="30" rx="4"/><text class="token-label" x="759.0" y="114" text-anchor="middle">]</text></g>
<g id="tok-1-13" class="token-group" data-kind="variable"><title>join_group</title><rect class="token token-variable" x="786" y="94" width="96" height="30" rx="4"/><text class="token-label" x="834.0" y="114" text-anchor="middle">join_group</text></g>
<text class="line-number" x="28" y="160" text-anchor="start">2</text>
<line class="rail" x1="48" y1="155" x2="1412" y2="155"/>
<g id="tok-2-14" class="token-group" data-kind="operator"><title>{</title><rect class="token token-operator" x="104" y="140" width="38" height="30" rx="4"/><text class="token-label" x="123.0" y="160" text-anchor="middle">{</text></g>
<g id="tok-2-15" class="token-group" data-kind="keyword"><title>ADD</title><rect class="token token-keyword" x="150" y="140" width="54" height="30" rx="4"/><text class="token-label" x="177.0" y="160" text-anchor="middle">ADD</text></g>
<g id="tok-2-16" class="token-group" data-kind="operator"><title>|</title><rect class="token token-operator" x="212" y="140" width="34" height="30" rx="4"/><text class="token-label" x="229.0" y="160" text-anchor="middle">|</text></g>
<g id="tok-2-17" class="token-group" data-kind="keyword"><title>REMOVE</title><rect class="token token-keyword" x="254" y="140" width="64" height="30" rx="4"/><text class="token-label" x="286.0" y="160" text-anchor="middle">REMOVE</text></g>
<g id="tok-2-18" class="token-group" data-kind="operator"><title>}</title><rect class="token token-operator" x="326" y="140" width="38" height="30" rx="4"/><text class="token-label" x="345.0" y="160" text-anchor="middle">}</text></g>
<g id="tok-2-19" class="token-group" data-kind="operator"><title>(</title><rect class="token token-operator" x="372" y="140" width="38" height="30" rx="4"/><text class="token-label" x="391.0" y="160" text-anchor="middle">(</text></g>
<g id="tok-2-20" class="token-group" data-kind="operator"><title>[</title><rect class="token token-operator" x="418" y="140" width="38" height="30" rx="4"/><text class="token-label" x="437.0" y="160" text-anchor="middle">[</text></g>
<g id="tok-2-21" class="token-group" data-kind="variable"><title>schema</title><rect class="token token-variable" x="464" y="140" width="64" height="30" rx="4"/><text class="token-label" x="496.0" y="160" text-anchor="middle">schema</text></g>
<g id="tok-2-22" class="token-group" data-kind="operator"><title>.</title><rect class="token token-operator" x="536" y="140" width="34" height="30" rx="4"/><text class="token-label" x="553.0" y="160" text-anchor="middle">.</text></g>
<g id="tok-2-23" class="token-group" data-kind="operator"><title>]</title><rect class="token token-operator" x="578" y="140" width="38" height="30" rx="4"/><text class="token-label" x="597.0" y="160" text-anchor="middle">]</text></g>
<g id="tok-2-24" class="token-group" data-kind="variable"><title>table</title><rect class="token token-variable" x="624" y="140" width="56" height="30" rx="4"/><text class="token-label" x="652.0" y="160" text-anchor="middle">table</text></g>
<g id="tok-2-25" class="token-group" data-kind="operator"><title>(</title><rect class="token token-operator" x="688" y="140" width="38" height="30" rx="4"/><text class="token-label" x="707.0" y="160" text-anchor="middle">(</text></g>
<g id="tok-2-26" class="token-group" data-kind="variable"><title>column</title><rect class="token token-variable" x="734" y="140" width="64" height="30" rx="4"/><text class="token-label" x="766.0" y="160" text-anchor="middle">column</text></g>
<g id="tok-2-27" class="token-group" data-kind="operator"><title>)</title><rect class="token token-operator" x="806" y="140" width="38" height="30" rx="4"/><text class="token-label" x="825.0" y="160" text-anchor="middle">)</text></g>
<g id="tok-2-28" class="token-group" data-kind="operator"><title>)</title><rect class="token token-operator" x="852" y="140" width="38" height="30" rx="4"/><text class="token-label" x="871.0" y="160" text-anchor="middle">)</text></g>
</svg>
