<svg xmlns="http://www.w3.org/2000/svg" role="img" viewBox="0 0 1440 482" width="1440" height="482" data-renderer-version="0.2.2" data-theme-version="0.2.0" data-layout-version="0.2.0">
  <title>ADD LOGFILE CLAUSES</title>
  <desc>Interactive SQL BNF diagram for ADD LOGFILE CLAUSES. Blue symbols link to supporting components.</desc>
  <style>
    .background { fill: #ffffff; }
    .frame { fill: #f8fafc; stroke: #cbd5e1; stroke-width: 1.25; }
    .title-band { fill: #111827; }
    .component-title { fill: #ffffff; font: 700 20px Arial, sans-serif; }
    .component-subtitle { fill: #d1d5db; font: 12px Arial, sans-serif; }
    .rail { stroke: #9ca3af; stroke-width: 1.35; }
    .line-number { fill: #64748b; font: 12px Arial, sans-serif; }
    .token { stroke-width: 1.25; }
    .token-label { fill: #111827; font: 13px Arial, sans-serif; pointer-events: none; }
    .token-keyword { fill: #f1f5f9; stroke: #64748b; }
    .token-reference { fill: #dbeafe; stroke: #2563eb; }
    .token-variable { fill: #fff7ed; stroke: #c2410c; }
    .token-literal { fill: #ecfdf5; stroke: #047857; }
    .token-operator { fill: #ffffff; stroke: #94a3b8; }
    .component-link:hover .token-reference { fill: #bfdbfe; stroke: #1d4ed8; }
    .truncated { fill: #9f1239; font: 13px Arial, sans-serif; }
  </style>
  <rect class="background" x="0" y="0" width="1440" height="482"/>
  <rect class="frame" x="12" y="12" width="1416" height="458" rx="6"/>
  <rect class="title-band" x="12" y="12" width="1416" height="50" rx="6"/>
  <text class="component-title" x="28" y="40">ADD LOGFILE CLAUSES</text>
  <text class="component-subtitle" x="1412" y="40" text-anchor="end">8 syntax lines · 1 references</text>
  <text class="line-number" x="28" y="114" text-anchor="start">1</text>
<line class="rail" x1="48" y1="109" x2="1412" y2="109"/>
<g id="tok-1-1" class="token-group" data-kind="keyword"><title>ADD</title><rect class="token token-keyword" x="76" y="94" width="54" height="30" rx="4"/><text class="token-label" x="103.0" y="114" text-anchor="middle">ADD</text></g>
<g id="tok-1-2" class="token-group" data-kind="operator"><title>[</title><rect class="token token-operator" x="138" y="94" width="38" height="30" rx="4"/><text class="token-label" x="157.0" y="114" text-anchor="middle">[</text></g>
<g id="tok-1-3" class="token-group" data-kind="keyword"><title>STANDBY</title><rect class="token token-keyword" x="184" y="94" width="72" height="30" rx="4"/><text class="token-label" x="220.0" y="114" text-anchor="middle">STANDBY</text></g>
<g id="tok-1-4" class="token-group" data-kind="operator"><title>]</title><rect class="token token-operator" x="264" y="94" width="38" height="30" rx="4"/><text class="token-label" x="283.0" y="114" text-anchor="middle">]</text></g>
<g id="tok-1-5" class="token-group" data-kind="keyword"><title>LOGFILE</title><rect class="token token-keyword" x="310" y="94" width="72" height="30" rx="4"/><text class="token-label" x="346.0" y="114" text-anchor="middle">LOGFILE</text></g>
<text class="line-number" x="28" y="160" text-anchor="start">2</text>
<line class="rail" x1="48" y1="155" x2="1412" y2="155"/>
<g id="tok-2-6" class="token-group" data-kind="operator"><title>{</title><rect class="token token-operator" x="118" y="140" width="38" height="30" rx="4"/><text class="token-label" x="137.0" y="160" text-anchor="middle">{</text></g>
<text class="line-number" x="28" y="206" text-anchor="start">3</text>
<line class="rail" x1="48" y1="201" x2="1412" y2="201"/>
<g id="tok-3-7" class="token-group" data-kind="operator"><title>{</title><rect class="token token-operator" x="146" y="186" width="38" height="30" rx="4"/><text class="token-label" x="165.0" y="206" text-anchor="middle">{</text></g>
<g id="tok-3-8" class="token-group" data-kind="operator"><title>[</title><rect class="token token-operator" x="192" y="186" width="38" height="30" rx="4"/><text class="token-label" x="211.0" y="206" text-anchor="middle">[</text></g>
<g id="tok-3-9" class="token-group" data-kind="keyword"><title>INSTANCE</title><rect class="token token-keyword" x="238" y="186" width="80" height="30" rx="4"/><text class="token-label" x="278.0" y="206" text-anchor="middle">INSTANCE</text></g>
<g id="tok-3-10" class="token-group" data-kind="literal"><title>&#x27;instance_name&#x27;</title><rect class="token token-literal" x="326" y="186" width="136" height="30" rx="4"/><text class="token-label" x="394.0" y="206" text-anchor="middle">&#x27;instance_name&#x27;</text></g>
<g id="tok-3-11" class="token-group" data-kind="operator"><title>]</title><rect class="token token-operator" x="470" y="186" width="38" height="30" rx="4"/><text class="token-label" x="489.0" y="206" text-anchor="middle">]</text></g>
<g id="tok-3-12" class="token-group" data-kind="operator"><title>|</title><rect class="token token-operator" x="516" y="186" width="34" height="30" rx="4"/><text class="token-label" x="533.0" y="206" text-anchor="middle">|</text></g>
<g id="tok-3-13" class="token-group" data-kind="operator"><title>[</title><rect class="token token-operator" x="558" y="186" width="38" height="30" rx="4"/><text class="token-label" x="577.0" y="206" text-anchor="middle">[</text></g>
<g id="tok-3-14" class="token-group" data-kind="keyword"><title>THREAD</title><rect class="token token-keyword" x="604" y="186" width="64" height="30" rx="4"/><text class="token-label" x="636.0" y="206" text-anchor="middle">THREAD</text></g>
<g id="tok-3-15" class="token-group" data-kind="literal"><title>&#x27;integer&#x27;</title><rect class="token token-literal" x="676" y="186" width="88" height="30" rx="4"/><text class="token-label" x="720.0" y="206" text-anchor="middle">&#x27;integer&#x27;</text></g>
<g id="tok-3-16" class="token-group" data-kind="operator"><title>]</title><rect class="token token-operator" x="772" y="186" width="38" height="30" rx="4"/><text class="token-label" x="791.0" y="206" text-anchor="middle">]</text></g>
<g id="tok-3-17" class="token-group" data-kind="operator"><title>}</title><rect class="token token-operator" x="818" y="186" width="38" height="30" rx="4"/><text class="token-label" x="837.0" y="206" text-anchor="middle">}</text></g>
<text class="line-number" x="28" y="252" text-anchor="start">4</text>
<line class="rail" x1="48" y1="247" x2="1412" y2="247"/>
<g id="tok-4-18" class="token-group" data-kind="operator"><title>[</title><rect class="token token-operator" x="146" y="232" width="38" height="30" rx="4"/><text class="token-label" x="165.0" y="252" text-anchor="middle">[</text></g>
<g id="tok-4-19" class="token-group" data-kind="keyword"><title>GROUP</title><rect class="token token-keyword" x="192" y="232" width="56" height="30" rx="4"/><text class="token-label" x="220.0" y="252" text-anchor="middle">GROUP</text></g>
<g id="tok-4-20" class="token-group" data-kind="variable"><title>integer</title><rect class="token token-variable" x="256" y="232" width="72" height="30" rx="4"/><text class="token-label" x="292.0" y="252" text-anchor="middle">integer</text></g>
<g id="tok-4-21" class="token-group" data-kind="operator"><title>]</title><rect class="token token-operator" x="336" y="232" width="38" height="30" rx="4"/><text class="token-label" x="355.0" y="252" text-anchor="middle">]</text></g>
<g id="tok-4-22" class="token-group" data-kind="variable"><title>redo_log_file_spec</title><rect class="token token-variable" x="382" y="232" width="160" height="30" rx="4"/><text class="token-label" x="462.0" y="252" text-anchor="middle">redo_log_file_spec</text></g>
<text class="line-number" x="28" y="298" text-anchor="start">5</text>
<line class="rail" x1="48" y1="293" x2="1412" y2="293"/>
<g id="tok-5-23" class="token-group" data-kind="operator"><title>[</title><rect class="token token-operator" x="174" y="278" width="38" height="30" rx="4"/><text class="token-label" x="193.0" y="298" text-anchor="middle">[</text></g>
<g id="tok-5-24" class="token-group" data-kind="operator"><title>,</title><rect class="token token-operator" x="220" y="278" width="34" height="30" rx="4"/><text class="token-label" x="237.0" y="298" text-anchor="middle">,</text></g>
<g id="tok-5-25" class="token-group" data-kind="operator"><title>[</title><rect class="token token-operator" x="262" y="278" width="38" height="30" rx="4"/><text class="token-label" x="281.0" y="298" text-anchor="middle">[</text></g>
<g id="tok-5-26" class="token-group" data-kind="keyword"><title>GROUP</title><rect class="token token-keyword" x="308" y="278" width="56" height="30" rx="4"/><text class="token-label" x="336.0" y="298" text-anchor="middle">GROUP</text></g>
<g id="tok-5-27" class="token-group" data-kind="variable"><title>integer</title><rect class="token token-variable" x="372" y="278" width="72" height="30" rx="4"/><text class="token-label" x="408.0" y="298" text-anchor="middle">integer</text></g>
<g id="tok-5-28" class="token-group" data-kind="operator"><title>]</title><rect class="token token-operator" x="452" y="278" width="38" height="30" rx="4"/><text class="token-label" x="471.0" y="298" text-anchor="middle">]</text></g>
<g id="tok-5-29" class="token-group" data-kind="variable"><title>redo_log_file_spec</title><rect class="token token-variable" x="498" y="278" width="160" height="30" rx="4"/><text class="token-label" x="578.0" y="298" text-anchor="middle">redo_log_file_spec</text></g>
<g id="tok-5-30" class="token-group" data-kind="operator"><title>]</title><rect class="token token-operator" x="666" y="278" width="38" height="30" rx="4"/><text class="token-label" x="685.0" y="298" text-anchor="middle">]</text></g>
<g id="tok-5-31" class="token-group" data-kind="operator"><title>.</title><rect class="token token-operator" x="712" y="278" width="34" height="30" rx="4"/><text class="token-label" x="729.0" y="298" text-anchor="middle">.</text></g>
<g id="tok-5-32" class="token-group" data-kind="operator"><title>.</title><rect class="token token-operator" x="754" y="278" width="34" height="30" rx="4"/><text class="token-label" x="771.0" y="298" text-anchor="middle">.</text></g>
<g id="tok-5-33" class="token-group" data-kind="operator"><title>.</title><rect class="token token-operator" x="796" y="278" width="34" height="30" rx="4"/><text class="token-label" x="813.0" y="298" text-anchor="middle">.</text></g>
<text class="line-number" x="28" y="344" text-anchor="start">6</text>
<line class="rail" x1="48" y1="339" x2="1412" y2="339"/>
<g id="tok-6-34" class="token-group" data-kind="operator"><title>|</title><rect class="token token-operator" x="118" y="324" width="34" height="30" rx="4"/><text class="token-label" x="135.0" y="344" text-anchor="middle">|</text></g>
<g id="tok-6-35" class="token-group" data-kind="keyword"><title>MEMBER</title><rect class="token token-keyword" x="160" y="324" width="64" height="30" rx="4"/><text class="token-label" x="192.0" y="344" text-anchor="middle">MEMBER</text></g>
<g id="tok-6-36" class="token-group" data-kind="literal"><title>&#x27;filename&#x27;</title><rect class="token token-literal" x="232" y="324" width="96" height="30" rx="4"/><text class="token-label" x="280.0" y="344" text-anchor="middle">&#x27;filename&#x27;</text></g>
<g id="tok-6-37" class="token-group" data-kind="operator"><title>[</title><rect class="token token-operator" x="336" y="324" width="38" height="30" rx="4"/><text class="token-label" x="355.0" y="344" text-anchor="middle">[</text></g>
<g id="tok-6-38" class="token-group" data-kind="keyword"><title>REUSE</title><rect class="token token-keyword" x="382" y="324" width="56" height="30" rx="4"/><text class="token-label" x="410.0" y="344" text-anchor="middle">REUSE</text></g>
<g id="tok-6-39" class="token-group" data-kind="operator"><title>]</title><rect class="token token-operator" x="446" y="324" width="38" height="30" rx="4"/><text class="token-label" x="465.0" y="344" text-anchor="middle">]</text></g>
<g id="tok-6-40" class="token-group" data-kind="operator"><title>[</title><rect class="token token-operator" x="492" y="324" width="38" height="30" rx="4"/><text class="token-label" x="511.0" y="344" text-anchor="middle">[</text></g>
<g id="tok-6-41" class="token-group" data-kind="operator"><title>,</title><rect class="token token-operator" x="538" y="324" width="34" height="30" rx="4"/><text class="token-label" x="555.0" y="344" text-anchor="middle">,</text></g>
<g id="tok-6-42" class="token-group" data-kind="literal"><title>&#x27;filename&#x27;</title><rect class="token token-literal" x="580" y="324" width="96" height="30" rx="4"/><text class="token-label" x="628.0" y="344" text-anchor="middle">&#x27;filename&#x27;</text></g>
<g id="tok-6-43" class="token-group" data-kind="operator"><title>[</title><rect class="token token-operator" x="684" y="324" width="38" height="30" rx="4"/><text class="token-label" x="703.0" y="344" text-anchor="middle">[</text></g>
<g id="tok-6-44" class="token-group" data-kind="keyword"><title>REUSE</title><rect class="token token-keyword" x="730" y="324" width="56" height="30" rx="4"/><text class="token-label" x="758.0" y="344" text-anchor="middle">REUSE</text></g>
<g id="tok-6-45" class="token-group" data-kind="operator"><title>]</title><rect class="token token-operator" x="794" y="324" width="38" height="30" rx="4"/><text class="token-label" x="813.0" y="344" text-anchor="middle">]</text></g>
<g id="tok-6-46" class="token-group" data-kind="operator"><title>]</title><rect class="token token-operator" x="840" y="324" width="38" height="30" rx="4"/><text class="token-label" x="859.0" y="344" text-anchor="middle">]</text></g>
<g id="tok-6-47" class="token-group" data-kind="operator"><title>.</title><rect class="token token-operator" x="886" y="324" width="34" height="30" rx="4"/><text class="token-label" x="903.0" y="344" text-anchor="middle">.</text></g>
<g id="tok-6-48" class="token-group" data-kind="operator"><title>.</title><rect class="token token-operator" x="928" y="324" width="34" height="30" rx="4"/><text class="token-label" x="945.0" y="344" text-anchor="middle">.</text></g>
<g id="tok-6-49" class="token-group" data-kind="operator"><title>.</title><rect class="token token-operator" x="970" y="324" width="34" height="30" rx="4"/><text class="token-label" x="987.0" y="344" text-anchor="middle">.</text></g>
<text class="line-number" x="28" y="390" text-anchor="start">7</text>
<line class="rail" x1="48" y1="385" x2="1412" y2="385"/>
<g id="tok-7-50" class="token-group" data-kind="keyword"><title>TO</title><rect class="token token-keyword" x="188" y="370" width="54" height="30" rx="4"/><text class="token-label" x="215.0" y="390" text-anchor="middle">TO</text></g>
<a href="components/logfile-descriptor.html" target="_parent" class="component-link"><g id="tok-7-51" class="token-group" data-kind="reference"><title>LOGFILE DESCRIPTOR</title><rect class="token token-reference" x="250" y="370" width="160" height="30" rx="4"/><text class="token-label" x="330.0" y="390" text-anchor="middle">logfile_descriptor</text></g></a>
<g id="tok-7-52" class="token-group" data-kind="operator"><title>[</title><rect class="token token-operator" x="418" y="370" width="38" height="30" rx="4"/><text class="token-label" x="437.0" y="390" text-anchor="middle">[</text></g>
<g id="tok-7-53" class="token-group" data-kind="operator"><title>,</title><rect class="token token-operator" x="464" y="370" width="34" height="30" rx="4"/><text class="token-label" x="481.0" y="390" text-anchor="middle">,</text></g>
<a href="components/logfile-descriptor.html" target="_parent" class="component-link"><g id="tok-7-54" class="token-group" data-kind="reference"><title>LOGFILE DESCRIPTOR</title><rect class="token token-reference" x="506" y="370" width="160" height="30" rx="4"/><text class="token-label" x="586.0" y="390" text-anchor="middle">logfile_descriptor</text></g></a>
<g id="tok-7-55" class="token-group" data-kind="operator"><title>]</title><rect class="token token-operator" x="674" y="370" width="38" height="30" rx="4"/><text class="token-label" x="693.0" y="390" text-anchor="middle">]</text></g>
<g id="tok-7-56" class="token-group" data-kind="operator"><title>.</title><rect class="token token-operator" x="720" y="370" width="34" height="30" rx="4"/><text class="token-label" x="737.0" y="390" text-anchor="middle">.</text></g>
<g id="tok-7-57" class="token-group" data-kind="operator"><title>.</title><rect class="token token-operator" x="762" y="370" width="34" height="30" rx="4"/><text class="token-label" x="779.0" y="390" text-anchor="middle">.</text></g>
<g id="tok-7-58" class="token-group" data-kind="operator"><title>.</title><rect class="token token-operator" x="804" y="370" width="34" height="30" rx="4"/><text class="token-label" x="821.0" y="390" text-anchor="middle">.</text></g>
<text class="line-number" x="28" y="436" text-anchor="start">8</text>
<line class="rail" x1="48" y1="431" x2="1412" y2="431"/>
<g id="tok-8-59" class="token-group" data-kind="operator"><title>}</title><rect class="token token-operator" x="118" y="416" width="38" height="30" rx="4"/><text class="token-label" x="137.0" y="436" text-anchor="middle">}</text></g>
</svg>
