<svg xmlns="http://www.w3.org/2000/svg" role="img" viewBox="0 0 1440 344" width="1440" height="344" data-renderer-version="0.2.2" data-theme-version="0.2.0" data-layout-version="0.2.0">
  <title>FILE PERMISSIONS CLAUSE</title>
  <desc>Interactive SQL BNF diagram for FILE PERMISSIONS CLAUSE. Blue symbols link to supporting components.</desc>
  <style>
    .background { fill: #ffffff; }
    .frame { fill: #f8fafc; stroke: #cbd5e1; stroke-width: 1.25; }
    .title-band { fill: #111827; }
    .component-title { fill: #ffffff; font: 700 20px Arial, sans-serif; }
    .component-subtitle { fill: #d1d5db; font: 12px Arial, sans-serif; }
    .rail { stroke: #9ca3af; stroke-width: 1.35; }
    .line-number { fill: #64748b; font: 12px Arial, sans-serif; }
    .token { stroke-width: 1.25; }
    .token-label { fill: #111827; font: 13px Arial, sans-serif; pointer-events: none; }
    .token-keyword { fill: #f1f5f9; stroke: #64748b; }
    .token-reference { fill: #dbeafe; stroke: #2563eb; }
    .token-variable { fill: #fff7ed; stroke: #c2410c; }
    .token-literal { fill: #ecfdf5; stroke: #047857; }
    .token-operator { fill: #ffffff; stroke: #94a3b8; }
    .component-link:hover .token-reference { fill: #bfdbfe; stroke: #1d4ed8; }
    .truncated { fill: #9f1239; font: 13px Arial, sans-serif; }
  </style>
  <rect class="background" x="0" y="0" width="1440" height="344"/>
  <rect class="frame" x="12" y="12" width="1416" height="320" rx="6"/>
  <rect class="title-band" x="12" y="12" width="1416" height="50" rx="6"/>
  <text class="component-title" x="28" y="40">FILE PERMISSIONS CLAUSE</text>
  <text class="component-subtitle" x="1412" y="40" text-anchor="end">5 syntax lines · 0 references</text>
  <text class="line-number" x="28" y="114" text-anchor="start">1</text>
<line class="rail" x1="48" y1="109" x2="1412" y2="109"/>
<g id="tok-1-1" class="token-group" data-kind="keyword"><title>SET</title><rect class="token token-keyword" x="76" y="94" width="54" height="30" rx="4"/><text class="token-label" x="103.0" y="114" text-anchor="middle">SET</text></g>
<g id="tok-1-2" class="token-group" data-kind="keyword"><title>PERMISSION</title><rect class="token token-keyword" x="138" y="94" width="96" height="30" rx="4"/><text class="token-label" x="186.0" y="114" text-anchor="middle">PERMISSION</text></g>
<g id="tok-1-3" class="token-group" data-kind="operator"><title>{</title><rect class="token token-operator" x="242" y="94" width="38" height="30" rx="4"/><text class="token-label" x="261.0" y="114" text-anchor="middle">{</text></g>
<g id="tok-1-4" class="token-group" data-kind="keyword"><title>OWNER</title><rect class="token token-keyword" x="288" y="94" width="56" height="30" rx="4"/><text class="token-label" x="316.0" y="114" text-anchor="middle">OWNER</text></g>
<g id="tok-1-5" class="token-group" data-kind="operator"><title>|</title><rect class="token token-operator" x="352" y="94" width="34" height="30" rx="4"/><text class="token-label" x="369.0" y="114" text-anchor="middle">|</text></g>
<g id="tok-1-6" class="token-group" data-kind="keyword"><title>GROUP</title><rect class="token token-keyword" x="394" y="94" width="56" height="30" rx="4"/><text class="token-label" x="422.0" y="114" text-anchor="middle">GROUP</text></g>
<g id="tok-1-7" class="token-group" data-kind="operator"><title>|</title><rect class="token token-operator" x="458" y="94" width="34" height="30" rx="4"/><text class="token-label" x="475.0" y="114" text-anchor="middle">|</text></g>
<g id="tok-1-8" class="token-group" data-kind="keyword"><title>OTHER</title><rect class="token token-keyword" x="500" y="94" width="56" height="30" rx="4"/><text class="token-label" x="528.0" y="114" text-anchor="middle">OTHER</text></g>
<g id="tok-1-9" class="token-group" data-kind="operator"><title>}</title><rect class="token token-operator" x="564" y="94" width="38" height="30" rx="4"/><text class="token-label" x="583.0" y="114" text-anchor="middle">}</text></g>
<text class="line-number" x="28" y="160" text-anchor="start">2</text>
<line class="rail" x1="48" y1="155" x2="1412" y2="155"/>
<g id="tok-2-10" class="token-group" data-kind="operator"><title>=</title><rect class="token token-operator" x="104" y="140" width="34" height="30" rx="4"/><text class="token-label" x="121.0" y="160" text-anchor="middle">=</text></g>
<g id="tok-2-11" class="token-group" data-kind="operator"><title>{</title><rect class="token token-operator" x="146" y="140" width="38" height="30" rx="4"/><text class="token-label" x="165.0" y="160" text-anchor="middle">{</text></g>
<g id="tok-2-12" class="token-group" data-kind="keyword"><title>NONE</title><rect class="token token-keyword" x="192" y="140" width="54" height="30" rx="4"/><text class="token-label" x="219.0" y="160" text-anchor="middle">NONE</text></g>
<g id="tok-2-13" class="token-group" data-kind="operator"><title>|</title><rect class="token token-operator" x="254" y="140" width="34" height="30" rx="4"/><text class="token-label" x="271.0" y="160" text-anchor="middle">|</text></g>
<g id="tok-2-14" class="token-group" data-kind="keyword"><title>READ</title><rect class="token token-keyword" x="296" y="140" width="54" height="30" rx="4"/><text class="token-label" x="323.0" y="160" text-anchor="middle">READ</text></g>
<g id="tok-2-15" class="token-group" data-kind="keyword"><title>ONLY</title><rect class="token token-keyword" x="358" y="140" width="54" height="30" rx="4"/><text class="token-label" x="385.0" y="160" text-anchor="middle">ONLY</text></g>
<g id="tok-2-16" class="token-group" data-kind="operator"><title>|</title><rect class="token token-operator" x="420" y="140" width="34" height="30" rx="4"/><text class="token-label" x="437.0" y="160" text-anchor="middle">|</text></g>
<g id="tok-2-17" class="token-group" data-kind="keyword"><title>READ</title><rect class="token token-keyword" x="462" y="140" width="54" height="30" rx="4"/><text class="token-label" x="489.0" y="160" text-anchor="middle">READ</text></g>
<g id="tok-2-18" class="token-group" data-kind="keyword"><title>WRITE</title><rect class="token token-keyword" x="524" y="140" width="56" height="30" rx="4"/><text class="token-label" x="552.0" y="160" text-anchor="middle">WRITE</text></g>
<g id="tok-2-19" class="token-group" data-kind="operator"><title>}</title><rect class="token token-operator" x="588" y="140" width="38" height="30" rx="4"/><text class="token-label" x="607.0" y="160" text-anchor="middle">}</text></g>
<text class="line-number" x="28" y="206" text-anchor="start">3</text>
<line class="rail" x1="48" y1="201" x2="1412" y2="201"/>
<g id="tok-3-20" class="token-group" data-kind="operator"><title>[</title><rect class="token token-operator" x="104" y="186" width="38" height="30" rx="4"/><text class="token-label" x="123.0" y="206" text-anchor="middle">[</text></g>
<g id="tok-3-21" class="token-group" data-kind="operator"><title>,</title><rect class="token token-operator" x="150" y="186" width="34" height="30" rx="4"/><text class="token-label" x="167.0" y="206" text-anchor="middle">,</text></g>
<g id="tok-3-22" class="token-group" data-kind="operator"><title>{</title><rect class="token token-operator" x="192" y="186" width="38" height="30" rx="4"/><text class="token-label" x="211.0" y="206" text-anchor="middle">{</text></g>
<g id="tok-3-23" class="token-group" data-kind="keyword"><title>OWNER</title><rect class="token token-keyword" x="238" y="186" width="56" height="30" rx="4"/><text class="token-label" x="266.0" y="206" text-anchor="middle">OWNER</text></g>
<g id="tok-3-24" class="token-group" data-kind="operator"><title>|</title><rect class="token token-operator" x="302" y="186" width="34" height="30" rx="4"/><text class="token-label" x="319.0" y="206" text-anchor="middle">|</text></g>
<g id="tok-3-25" class="token-group" data-kind="keyword"><title>GROUP</title><rect class="token token-keyword" x="344" y="186" width="56" height="30" rx="4"/><text class="token-label" x="372.0" y="206" text-anchor="middle">GROUP</text></g>
<g id="tok-3-26" class="token-group" data-kind="operator"><title>|</title><rect class="token token-operator" x="408" y="186" width="34" height="30" rx="4"/><text class="token-label" x="425.0" y="206" text-anchor="middle">|</text></g>
<g id="tok-3-27" class="token-group" data-kind="keyword"><title>OTHER</title><rect class="token token-keyword" x="450" y="186" width="56" height="30" rx="4"/><text class="token-label" x="478.0" y="206" text-anchor="middle">OTHER</text></g>
<g id="tok-3-28" class="token-group" data-kind="operator"><title>|</title><rect class="token token-operator" x="514" y="186" width="34" height="30" rx="4"/><text class="token-label" x="531.0" y="206" text-anchor="middle">|</text></g>
<g id="tok-3-29" class="token-group" data-kind="keyword"><title>ALL</title><rect class="token token-keyword" x="556" y="186" width="54" height="30" rx="4"/><text class="token-label" x="583.0" y="206" text-anchor="middle">ALL</text></g>
<g id="tok-3-30" class="token-group" data-kind="operator"><title>}</title><rect class="token token-operator" x="618" y="186" width="38" height="30" rx="4"/><text class="token-label" x="637.0" y="206" text-anchor="middle">}</text></g>
<text class="line-number" x="28" y="252" text-anchor="start">4</text>
<line class="rail" x1="48" y1="247" x2="1412" y2="247"/>
<g id="tok-4-31" class="token-group" data-kind="operator"><title>=</title><rect class="token token-operator" x="132" y="232" width="34" height="30" rx="4"/><text class="token-label" x="149.0" y="252" text-anchor="middle">=</text></g>
<g id="tok-4-32" class="token-group" data-kind="operator"><title>{</title><rect class="token token-operator" x="174" y="232" width="38" height="30" rx="4"/><text class="token-label" x="193.0" y="252" text-anchor="middle">{</text></g>
<g id="tok-4-33" class="token-group" data-kind="keyword"><title>NONE</title><rect class="token token-keyword" x="220" y="232" width="54" height="30" rx="4"/><text class="token-label" x="247.0" y="252" text-anchor="middle">NONE</text></g>
<g id="tok-4-34" class="token-group" data-kind="operator"><title>|</title><rect class="token token-operator" x="282" y="232" width="34" height="30" rx="4"/><text class="token-label" x="299.0" y="252" text-anchor="middle">|</text></g>
<g id="tok-4-35" class="token-group" data-kind="keyword"><title>READ</title><rect class="token token-keyword" x="324" y="232" width="54" height="30" rx="4"/><text class="token-label" x="351.0" y="252" text-anchor="middle">READ</text></g>
<g id="tok-4-36" class="token-group" data-kind="keyword"><title>ONLY</title><rect class="token token-keyword" x="386" y="232" width="54" height="30" rx="4"/><text class="token-label" x="413.0" y="252" text-anchor="middle">ONLY</text></g>
<g id="tok-4-37" class="token-group" data-kind="operator"><title>|</title><rect class="token token-operator" x="448" y="232" width="34" height="30" rx="4"/><text class="token-label" x="465.0" y="252" text-anchor="middle">|</text></g>
<g id="tok-4-38" class="token-group" data-kind="keyword"><title>READ</title><rect class="token token-keyword" x="490" y="232" width="54" height="30" rx="4"/><text class="token-label" x="517.0" y="252" text-anchor="middle">READ</text></g>
<g id="tok-4-39" class="token-group" data-kind="keyword"><title>WRITE</title><rect class="token token-keyword" x="552" y="232" width="56" height="30" rx="4"/><text class="token-label" x="580.0" y="252" text-anchor="middle">WRITE</text></g>
<g id="tok-4-40" class="token-group" data-kind="operator"><title>}</title><rect class="token token-operator" x="616" y="232" width="38" height="30" rx="4"/><text class="token-label" x="635.0" y="252" text-anchor="middle">}</text></g>
<g id="tok-4-41" class="token-group" data-kind="operator"><title>]</title><rect class="token token-operator" x="662" y="232" width="38" height="30" rx="4"/><text class="token-label" x="681.0" y="252" text-anchor="middle">]</text></g>
<g id="tok-4-42" class="token-group" data-kind="operator"><title>.</title><rect class="token token-operator" x="708" y="232" width="34" height="30" rx="4"/><text class="token-label" x="725.0" y="252" text-anchor="middle">.</text></g>
<g id="tok-4-43" class="token-group" data-kind="operator"><title>.</title><rect class="token token-operator" x="750" y="232" width="34" height="30" rx="4"/><text class="token-label" x="767.0" y="252" text-anchor="middle">.</text></g>
<g id="tok-4-44" class="token-group" data-kind="operator"><title>.</title><rect class="token token-operator" x="792" y="232" width="34" height="30" rx="4"/><text class="token-label" x="809.0" y="252" text-anchor="middle">.</text></g>
<text class="line-number" x="28" y="298" text-anchor="start">5</text>
<line class="rail" x1="48" y1="293" x2="1412" y2="293"/>
<g id="tok-5-45" class="token-group" data-kind="keyword"><title>FOR</title><rect class="token token-keyword" x="132" y="278" width="54" height="30" rx="4"/><text class="token-label" x="159.0" y="298" text-anchor="middle">FOR</text></g>
<g id="tok-5-46" class="token-group" data-kind="keyword"><title>FILE</title><rect class="token token-keyword" x="194" y="278" width="54" height="30" rx="4"/><text class="token-label" x="221.0" y="298" text-anchor="middle">FILE</text></g>
<g id="tok-5-47" class="token-group" data-kind="literal"><title>&#x27;filename&#x27;</title><rect class="token token-literal" x="256" y="278" width="96" height="30" rx="4"/><text class="token-label" x="304.0" y="298" text-anchor="middle">&#x27;filename&#x27;</text></g>
<g id="tok-5-48" class="token-group" data-kind="operator"><title>[</title><rect class="token token-operator" x="360" y="278" width="38" height="30" rx="4"/><text class="token-label" x="379.0" y="298" text-anchor="middle">[</text></g>
<g id="tok-5-49" class="token-group" data-kind="operator"><title>,</title><rect class="token token-operator" x="406" y="278" width="34" height="30" rx="4"/><text class="token-label" x="423.0" y="298" text-anchor="middle">,</text></g>
<g id="tok-5-50" class="token-group" data-kind="literal"><title>&#x27;filename&#x27;</title><rect class="token token-literal" x="448" y="278" width="96" height="30" rx="4"/><text class="token-label" x="496.0" y="298" text-anchor="middle">&#x27;filename&#x27;</text></g>
<g id="tok-5-51" class="token-group" data-kind="operator"><title>]</title><rect class="token token-operator" x="552" y="278" width="38" height="30" rx="4"/><text class="token-label" x="571.0" y="298" text-anchor="middle">]</text></g>
<g id="tok-5-52" class="token-group" data-kind="operator"><title>.</title><rect class="token token-operator" x="598" y="278" width="34" height="30" rx="4"/><text class="token-label" x="615.0" y="298" text-anchor="middle">.</text></g>
<g id="tok-5-53" class="token-group" data-kind="operator"><title>.</title><rect class="token token-operator" x="640" y="278" width="34" height="30" rx="4"/><text class="token-label" x="657.0" y="298" text-anchor="middle">.</text></g>
<g id="tok-5-54" class="token-group" data-kind="operator"><title>.</title><rect class="token token-operator" x="682" y="278" width="34" height="30" rx="4"/><text class="token-label" x="699.0" y="298" text-anchor="middle">.</text></g>
</svg>
