<svg xmlns="http://www.w3.org/2000/svg" role="img" viewBox="0 0 1440 344" width="1440" height="344" data-renderer-version="0.2.2" data-theme-version="0.2.0" data-layout-version="0.2.0">
  <title>MODIFY TO PARTITIONED</title>
  <desc>Interactive SQL BNF diagram for MODIFY TO PARTITIONED. Blue symbols link to supporting components.</desc>
  <style>
    .background { fill: #ffffff; }
    .frame { fill: #f8fafc; stroke: #cbd5e1; stroke-width: 1.25; }
    .title-band { fill: #111827; }
    .component-title { fill: #ffffff; font: 700 20px Arial, sans-serif; }
    .component-subtitle { fill: #d1d5db; font: 12px Arial, sans-serif; }
    .rail { stroke: #9ca3af; stroke-width: 1.35; }
    .line-number { fill: #64748b; font: 12px Arial, sans-serif; }
    .token { stroke-width: 1.25; }
    .token-label { fill: #111827; font: 13px Arial, sans-serif; pointer-events: none; }
    .token-keyword { fill: #f1f5f9; stroke: #64748b; }
    .token-reference { fill: #dbeafe; stroke: #2563eb; }
    .token-variable { fill: #fff7ed; stroke: #c2410c; }
    .token-literal { fill: #ecfdf5; stroke: #047857; }
    .token-operator { fill: #ffffff; stroke: #94a3b8; }
    .component-link:hover .token-reference { fill: #bfdbfe; stroke: #1d4ed8; }
    .truncated { fill: #9f1239; font: 13px Arial, sans-serif; }
  </style>
  <rect class="background" x="0" y="0" width="1440" height="344"/>
  <rect class="frame" x="12" y="12" width="1416" height="320" rx="6"/>
  <rect class="title-band" x="12" y="12" width="1416" height="50" rx="6"/>
  <text class="component-title" x="28" y="40">MODIFY TO PARTITIONED</text>
  <text class="component-subtitle" x="1412" y="40" text-anchor="end">5 syntax lines · 0 references</text>
  <text class="line-number" x="28" y="114" text-anchor="start">1</text>
<line class="rail" x1="48" y1="109" x2="1412" y2="109"/>
<g id="tok-1-1" class="token-group" data-kind="operator"><title>[</title><rect class="token token-operator" x="104" y="94" width="38" height="30" rx="4"/><text class="token-label" x="123.0" y="114" text-anchor="middle">[</text></g>
<g id="tok-1-2" class="token-group" data-kind="keyword"><title>ONLINE</title><rect class="token token-keyword" x="150" y="94" width="64" height="30" rx="4"/><text class="token-label" x="182.0" y="114" text-anchor="middle">ONLINE</text></g>
<g id="tok-1-3" class="token-group" data-kind="operator"><title>]</title><rect class="token token-operator" x="222" y="94" width="38" height="30" rx="4"/><text class="token-label" x="241.0" y="114" text-anchor="middle">]</text></g>
<text class="line-number" x="28" y="160" text-anchor="start">2</text>
<line class="rail" x1="48" y1="155" x2="1412" y2="155"/>
<g id="tok-2-4" class="token-group" data-kind="operator"><title>[</title><rect class="token token-operator" x="104" y="140" width="38" height="30" rx="4"/><text class="token-label" x="123.0" y="160" text-anchor="middle">[</text></g>
<g id="tok-2-5" class="token-group" data-kind="keyword"><title>UPDATE</title><rect class="token token-keyword" x="150" y="140" width="64" height="30" rx="4"/><text class="token-label" x="182.0" y="160" text-anchor="middle">UPDATE</text></g>
<g id="tok-2-6" class="token-group" data-kind="keyword"><title>INDEXES</title><rect class="token token-keyword" x="222" y="140" width="72" height="30" rx="4"/><text class="token-label" x="258.0" y="160" text-anchor="middle">INDEXES</text></g>
<g id="tok-2-7" class="token-group" data-kind="operator"><title>[</title><rect class="token token-operator" x="302" y="140" width="38" height="30" rx="4"/><text class="token-label" x="321.0" y="160" text-anchor="middle">[</text></g>
<g id="tok-2-8" class="token-group" data-kind="operator"><title>(</title><rect class="token token-operator" x="348" y="140" width="38" height="30" rx="4"/><text class="token-label" x="367.0" y="160" text-anchor="middle">(</text></g>
<g id="tok-2-9" class="token-group" data-kind="variable"><title>index</title><rect class="token token-variable" x="394" y="140" width="56" height="30" rx="4"/><text class="token-label" x="422.0" y="160" text-anchor="middle">index</text></g>
<g id="tok-2-10" class="token-group" data-kind="operator"><title>{</title><rect class="token token-operator" x="458" y="140" width="38" height="30" rx="4"/><text class="token-label" x="477.0" y="160" text-anchor="middle">{</text></g>
<g id="tok-2-11" class="token-group" data-kind="variable"><title>local_partitioned_index</title><rect class="token token-variable" x="504" y="140" width="200" height="30" rx="4"/><text class="token-label" x="604.0" y="160" text-anchor="middle">local_partitioned_index</text></g>
<g id="tok-2-12" class="token-group" data-kind="operator"><title>|</title><rect class="token token-operator" x="712" y="140" width="34" height="30" rx="4"/><text class="token-label" x="729.0" y="160" text-anchor="middle">|</text></g>
<g id="tok-2-13" class="token-group" data-kind="variable"><title>global_partitioned_index</title><rect class="token token-variable" x="754" y="140" width="208" height="30" rx="4"/><text class="token-label" x="858.0" y="160" text-anchor="middle">global_partitioned_index</text></g>
<g id="tok-2-14" class="token-group" data-kind="operator"><title>|</title><rect class="token token-operator" x="970" y="140" width="34" height="30" rx="4"/><text class="token-label" x="987.0" y="160" text-anchor="middle">|</text></g>
<g id="tok-2-15" class="token-group" data-kind="keyword"><title>GLOBAL</title><rect class="token token-keyword" x="1012" y="140" width="64" height="30" rx="4"/><text class="token-label" x="1044.0" y="160" text-anchor="middle">GLOBAL</text></g>
<g id="tok-2-16" class="token-group" data-kind="operator"><title>}</title><rect class="token token-operator" x="1084" y="140" width="38" height="30" rx="4"/><text class="token-label" x="1103.0" y="160" text-anchor="middle">}</text></g>
<text class="line-number" x="28" y="206" text-anchor="start">3</text>
<line class="rail" x1="48" y1="201" x2="1412" y2="201"/>
<g id="tok-3-17" class="token-group" data-kind="operator"><title>[</title><rect class="token token-operator" x="188" y="186" width="38" height="30" rx="4"/><text class="token-label" x="207.0" y="206" text-anchor="middle">[</text></g>
<g id="tok-3-18" class="token-group" data-kind="operator"><title>,</title><rect class="token token-operator" x="234" y="186" width="34" height="30" rx="4"/><text class="token-label" x="251.0" y="206" text-anchor="middle">,</text></g>
<g id="tok-3-19" class="token-group" data-kind="variable"><title>index</title><rect class="token token-variable" x="276" y="186" width="56" height="30" rx="4"/><text class="token-label" x="304.0" y="206" text-anchor="middle">index</text></g>
<g id="tok-3-20" class="token-group" data-kind="operator"><title>{</title><rect class="token token-operator" x="340" y="186" width="38" height="30" rx="4"/><text class="token-label" x="359.0" y="206" text-anchor="middle">{</text></g>
<g id="tok-3-21" class="token-group" data-kind="variable"><title>local_partitioned_index</title><rect class="token token-variable" x="386" y="186" width="200" height="30" rx="4"/><text class="token-label" x="486.0" y="206" text-anchor="middle">local_partitioned_index</text></g>
<g id="tok-3-22" class="token-group" data-kind="operator"><title>|</title><rect class="token token-operator" x="594" y="186" width="34" height="30" rx="4"/><text class="token-label" x="611.0" y="206" text-anchor="middle">|</text></g>
<g id="tok-3-23" class="token-group" data-kind="variable"><title>global_partitioned_index</title><rect class="token token-variable" x="636" y="186" width="208" height="30" rx="4"/><text class="token-label" x="740.0" y="206" text-anchor="middle">global_partitioned_index</text></g>
<g id="tok-3-24" class="token-group" data-kind="operator"><title>|</title><rect class="token token-operator" x="852" y="186" width="34" height="30" rx="4"/><text class="token-label" x="869.0" y="206" text-anchor="middle">|</text></g>
<g id="tok-3-25" class="token-group" data-kind="keyword"><title>GLOBAL</title><rect class="token token-keyword" x="894" y="186" width="64" height="30" rx="4"/><text class="token-label" x="926.0" y="206" text-anchor="middle">GLOBAL</text></g>
<g id="tok-3-26" class="token-group" data-kind="operator"><title>}</title><rect class="token token-operator" x="966" y="186" width="38" height="30" rx="4"/><text class="token-label" x="985.0" y="206" text-anchor="middle">}</text></g>
<g id="tok-3-27" class="token-group" data-kind="operator"><title>]</title><rect class="token token-operator" x="1012" y="186" width="38" height="30" rx="4"/><text class="token-label" x="1031.0" y="206" text-anchor="middle">]</text></g>
<g id="tok-3-28" class="token-group" data-kind="operator"><title>.</title><rect class="token token-operator" x="1058" y="186" width="34" height="30" rx="4"/><text class="token-label" x="1075.0" y="206" text-anchor="middle">.</text></g>
<g id="tok-3-29" class="token-group" data-kind="operator"><title>.</title><rect class="token token-operator" x="1100" y="186" width="34" height="30" rx="4"/><text class="token-label" x="1117.0" y="206" text-anchor="middle">.</text></g>
<g id="tok-3-30" class="token-group" data-kind="operator"><title>.</title><rect class="token token-operator" x="1142" y="186" width="34" height="30" rx="4"/><text class="token-label" x="1159.0" y="206" text-anchor="middle">.</text></g>
<g id="tok-3-31" class="token-group" data-kind="operator"><title>)</title><rect class="token token-operator" x="1184" y="186" width="38" height="30" rx="4"/><text class="token-label" x="1203.0" y="206" text-anchor="middle">)</text></g>
<text class="line-number" x="28" y="252" text-anchor="start">4</text>
<line class="rail" x1="48" y1="247" x2="1412" y2="247"/>
<g id="tok-4-32" class="token-group" data-kind="operator"><title>]</title><rect class="token token-operator" x="188" y="232" width="38" height="30" rx="4"/><text class="token-label" x="207.0" y="252" text-anchor="middle">]</text></g>
<text class="line-number" x="28" y="298" text-anchor="start">5</text>
<line class="rail" x1="48" y1="293" x2="1412" y2="293"/>
<g id="tok-5-33" class="token-group" data-kind="operator"><title>]</title><rect class="token token-operator" x="104" y="278" width="38" height="30" rx="4"/><text class="token-label" x="123.0" y="298" text-anchor="middle">]</text></g>
</svg>
