<svg xmlns="http://www.w3.org/2000/svg" role="img" viewBox="0 0 1440 344" width="1440" height="344" data-renderer-version="0.2.2" data-theme-version="0.2.0" data-layout-version="0.2.0">
  <title>OID INDEX CLAUSE</title>
  <desc>Interactive SQL BNF diagram for OID INDEX CLAUSE. Blue symbols link to supporting components.</desc>
  <style>
    .background { fill: #ffffff; }
    .frame { fill: #f8fafc; stroke: #cbd5e1; stroke-width: 1.25; }
    .title-band { fill: #111827; }
    .component-title { fill: #ffffff; font: 700 20px Arial, sans-serif; }
    .component-subtitle { fill: #d1d5db; font: 12px Arial, sans-serif; }
    .rail { stroke: #9ca3af; stroke-width: 1.35; }
    .line-number { fill: #64748b; font: 12px Arial, sans-serif; }
    .token { stroke-width: 1.25; }
    .token-label { fill: #111827; font: 13px Arial, sans-serif; pointer-events: none; }
    .token-keyword { fill: #f1f5f9; stroke: #64748b; }
    .token-reference { fill: #dbeafe; stroke: #2563eb; }
    .token-variable { fill: #fff7ed; stroke: #c2410c; }
    .token-literal { fill: #ecfdf5; stroke: #047857; }
    .token-operator { fill: #ffffff; stroke: #94a3b8; }
    .component-link:hover .token-reference { fill: #bfdbfe; stroke: #1d4ed8; }
    .truncated { fill: #9f1239; font: 13px Arial, sans-serif; }
  </style>
  <rect class="background" x="0" y="0" width="1440" height="344"/>
  <rect class="frame" x="12" y="12" width="1416" height="320" rx="6"/>
  <rect class="title-band" x="12" y="12" width="1416" height="50" rx="6"/>
  <text class="component-title" x="28" y="40">OID INDEX CLAUSE</text>
  <text class="component-subtitle" x="1412" y="40" text-anchor="end">5 syntax lines · 1 references</text>
  <text class="line-number" x="28" y="114" text-anchor="start">1</text>
<line class="rail" x1="48" y1="109" x2="1412" y2="109"/>
<g id="tok-1-1" class="token-group" data-kind="keyword"><title>OIDINDEX</title><rect class="token token-keyword" x="76" y="94" width="80" height="30" rx="4"/><text class="token-label" x="116.0" y="114" text-anchor="middle">OIDINDEX</text></g>
<g id="tok-1-2" class="token-group" data-kind="operator"><title>[</title><rect class="token token-operator" x="164" y="94" width="38" height="30" rx="4"/><text class="token-label" x="183.0" y="114" text-anchor="middle">[</text></g>
<g id="tok-1-3" class="token-group" data-kind="variable"><title>index</title><rect class="token token-variable" x="210" y="94" width="56" height="30" rx="4"/><text class="token-label" x="238.0" y="114" text-anchor="middle">index</text></g>
<g id="tok-1-4" class="token-group" data-kind="operator"><title>]</title><rect class="token token-operator" x="274" y="94" width="38" height="30" rx="4"/><text class="token-label" x="293.0" y="114" text-anchor="middle">]</text></g>
<text class="line-number" x="28" y="160" text-anchor="start">2</text>
<line class="rail" x1="48" y1="155" x2="1412" y2="155"/>
<g id="tok-2-5" class="token-group" data-kind="operator"><title>(</title><rect class="token token-operator" x="76" y="140" width="38" height="30" rx="4"/><text class="token-label" x="95.0" y="160" text-anchor="middle">(</text></g>
<g id="tok-2-6" class="token-group" data-kind="operator"><title>{</title><rect class="token token-operator" x="122" y="140" width="38" height="30" rx="4"/><text class="token-label" x="141.0" y="160" text-anchor="middle">{</text></g>
<a href="components/physical-attributes-clause.html" target="_parent" class="component-link"><g id="tok-2-7" class="token-group" data-kind="reference"><title>PHYSICAL ATTRIBUTES CLAUSE</title><rect class="token token-reference" x="168" y="140" width="224" height="30" rx="4"/><text class="token-label" x="280.0" y="160" text-anchor="middle">physical_attributes_clause</text></g></a>
<text class="line-number" x="28" y="206" text-anchor="start">3</text>
<line class="rail" x1="48" y1="201" x2="1412" y2="201"/>
<g id="tok-3-8" class="token-group" data-kind="operator"><title>|</title><rect class="token token-operator" x="90" y="186" width="34" height="30" rx="4"/><text class="token-label" x="107.0" y="206" text-anchor="middle">|</text></g>
<g id="tok-3-9" class="token-group" data-kind="keyword"><title>TABLESPACE</title><rect class="token token-keyword" x="132" y="186" width="96" height="30" rx="4"/><text class="token-label" x="180.0" y="206" text-anchor="middle">TABLESPACE</text></g>
<g id="tok-3-10" class="token-group" data-kind="variable"><title>tablespace</title><rect class="token token-variable" x="236" y="186" width="96" height="30" rx="4"/><text class="token-label" x="284.0" y="206" text-anchor="middle">tablespace</text></g>
<text class="line-number" x="28" y="252" text-anchor="start">4</text>
<line class="rail" x1="48" y1="247" x2="1412" y2="247"/>
<g id="tok-4-11" class="token-group" data-kind="operator"><title>}</title><rect class="token token-operator" x="90" y="232" width="38" height="30" rx="4"/><text class="token-label" x="109.0" y="252" text-anchor="middle">}</text></g>
<g id="tok-4-12" class="token-group" data-kind="operator"><title>.</title><rect class="token token-operator" x="136" y="232" width="34" height="30" rx="4"/><text class="token-label" x="153.0" y="252" text-anchor="middle">.</text></g>
<g id="tok-4-13" class="token-group" data-kind="operator"><title>.</title><rect class="token token-operator" x="178" y="232" width="34" height="30" rx="4"/><text class="token-label" x="195.0" y="252" text-anchor="middle">.</text></g>
<g id="tok-4-14" class="token-group" data-kind="operator"><title>.</title><rect class="token token-operator" x="220" y="232" width="34" height="30" rx="4"/><text class="token-label" x="237.0" y="252" text-anchor="middle">.</text></g>
<text class="line-number" x="28" y="298" text-anchor="start">5</text>
<line class="rail" x1="48" y1="293" x2="1412" y2="293"/>
<g id="tok-5-15" class="token-group" data-kind="operator"><title>)</title><rect class="token token-operator" x="76" y="278" width="38" height="30" rx="4"/><text class="token-label" x="95.0" y="298" text-anchor="middle">)</text></g>
</svg>
