<svg xmlns="http://www.w3.org/2000/svg" role="img" viewBox="0 0 1440 298" width="1440" height="298" data-renderer-version="0.2.2" data-theme-version="0.2.0" data-layout-version="0.2.0">
  <title>TRACKING STATISTICS CLAUSE</title>
  <desc>Interactive SQL BNF diagram for TRACKING STATISTICS CLAUSE. Blue symbols link to supporting components.</desc>
  <style>
    .background { fill: #ffffff; }
    .frame { fill: #f8fafc; stroke: #cbd5e1; stroke-width: 1.25; }
    .title-band { fill: #111827; }
    .component-title { fill: #ffffff; font: 700 20px Arial, sans-serif; }
    .component-subtitle { fill: #d1d5db; font: 12px Arial, sans-serif; }
    .rail { stroke: #9ca3af; stroke-width: 1.35; }
    .line-number { fill: #64748b; font: 12px Arial, sans-serif; }
    .token { stroke-width: 1.25; }
    .token-label { fill: #111827; font: 13px Arial, sans-serif; pointer-events: none; }
    .token-keyword { fill: #f1f5f9; stroke: #64748b; }
    .token-reference { fill: #dbeafe; stroke: #2563eb; }
    .token-variable { fill: #fff7ed; stroke: #c2410c; }
    .token-literal { fill: #ecfdf5; stroke: #047857; }
    .token-operator { fill: #ffffff; stroke: #94a3b8; }
    .component-link:hover .token-reference { fill: #bfdbfe; stroke: #1d4ed8; }
    .truncated { fill: #9f1239; font: 13px Arial, sans-serif; }
  </style>
  <rect class="background" x="0" y="0" width="1440" height="298"/>
  <rect class="frame" x="12" y="12" width="1416" height="274" rx="6"/>
  <rect class="title-band" x="12" y="12" width="1416" height="50" rx="6"/>
  <text class="component-title" x="28" y="40">TRACKING STATISTICS CLAUSE</text>
  <text class="component-subtitle" x="1412" y="40" text-anchor="end">4 syntax lines · 0 references</text>
  <text class="line-number" x="28" y="114" text-anchor="start">1</text>
<line class="rail" x1="48" y1="109" x2="1412" y2="109"/>
<g id="tok-1-1" class="token-group" data-kind="operator"><title>{</title><rect class="token token-operator" x="118" y="94" width="38" height="30" rx="4"/><text class="token-label" x="137.0" y="114" text-anchor="middle">{</text></g>
<g id="tok-1-2" class="token-group" data-kind="keyword"><title>DAYS</title><rect class="token token-keyword" x="164" y="94" width="54" height="30" rx="4"/><text class="token-label" x="191.0" y="114" text-anchor="middle">DAYS</text></g>
<text class="line-number" x="28" y="160" text-anchor="start">2</text>
<line class="rail" x1="48" y1="155" x2="1412" y2="155"/>
<g id="tok-2-3" class="token-group" data-kind="operator"><title>|</title><rect class="token token-operator" x="118" y="140" width="34" height="30" rx="4"/><text class="token-label" x="135.0" y="160" text-anchor="middle">|</text></g>
<g id="tok-2-4" class="token-group" data-kind="keyword"><title>MONTHS</title><rect class="token token-keyword" x="160" y="140" width="64" height="30" rx="4"/><text class="token-label" x="192.0" y="160" text-anchor="middle">MONTHS</text></g>
<text class="line-number" x="28" y="206" text-anchor="start">3</text>
<line class="rail" x1="48" y1="201" x2="1412" y2="201"/>
<g id="tok-3-5" class="token-group" data-kind="operator"><title>|</title><rect class="token token-operator" x="118" y="186" width="34" height="30" rx="4"/><text class="token-label" x="135.0" y="206" text-anchor="middle">|</text></g>
<g id="tok-3-6" class="token-group" data-kind="keyword"><title>YEARS</title><rect class="token token-keyword" x="160" y="186" width="56" height="30" rx="4"/><text class="token-label" x="188.0" y="206" text-anchor="middle">YEARS</text></g>
<g id="tok-3-7" class="token-group" data-kind="operator"><title>}</title><rect class="token token-operator" x="224" y="186" width="38" height="30" rx="4"/><text class="token-label" x="243.0" y="206" text-anchor="middle">}</text></g>
<text class="line-number" x="28" y="252" text-anchor="start">4</text>
<line class="rail" x1="48" y1="247" x2="1412" y2="247"/>
<g id="tok-4-8" class="token-group" data-kind="keyword"><title>OF</title><rect class="token token-keyword" x="132" y="232" width="54" height="30" rx="4"/><text class="token-label" x="159.0" y="252" text-anchor="middle">OF</text></g>
<g id="tok-4-9" class="token-group" data-kind="operator"><title>[</title><rect class="token token-operator" x="194" y="232" width="38" height="30" rx="4"/><text class="token-label" x="213.0" y="252" text-anchor="middle">[</text></g>
<g id="tok-4-10" class="token-group" data-kind="keyword"><title>NO</title><rect class="token token-keyword" x="240" y="232" width="54" height="30" rx="4"/><text class="token-label" x="267.0" y="252" text-anchor="middle">NO</text></g>
<g id="tok-4-11" class="token-group" data-kind="operator"><title>]</title><rect class="token token-operator" x="302" y="232" width="38" height="30" rx="4"/><text class="token-label" x="321.0" y="252" text-anchor="middle">]</text></g>
<g id="tok-4-12" class="token-group" data-kind="operator"><title>{</title><rect class="token token-operator" x="348" y="232" width="38" height="30" rx="4"/><text class="token-label" x="367.0" y="252" text-anchor="middle">{</text></g>
<g id="tok-4-13" class="token-group" data-kind="keyword"><title>ACCESS</title><rect class="token token-keyword" x="394" y="232" width="64" height="30" rx="4"/><text class="token-label" x="426.0" y="252" text-anchor="middle">ACCESS</text></g>
<g id="tok-4-14" class="token-group" data-kind="operator"><title>|</title><rect class="token token-operator" x="466" y="232" width="34" height="30" rx="4"/><text class="token-label" x="483.0" y="252" text-anchor="middle">|</text></g>
<g id="tok-4-15" class="token-group" data-kind="keyword"><title>MODIFICATION</title><rect class="token token-keyword" x="508" y="232" width="112" height="30" rx="4"/><text class="token-label" x="564.0" y="252" text-anchor="middle">MODIFICATION</text></g>
<g id="tok-4-16" class="token-group" data-kind="operator"><title>|</title><rect class="token token-operator" x="628" y="232" width="34" height="30" rx="4"/><text class="token-label" x="645.0" y="252" text-anchor="middle">|</text></g>
<g id="tok-4-17" class="token-group" data-kind="keyword"><title>CREATION</title><rect class="token token-keyword" x="670" y="232" width="80" height="30" rx="4"/><text class="token-label" x="710.0" y="252" text-anchor="middle">CREATION</text></g>
<g id="tok-4-18" class="token-group" data-kind="operator"><title>}</title><rect class="token token-operator" x="758" y="232" width="38" height="30" rx="4"/><text class="token-label" x="777.0" y="252" text-anchor="middle">}</text></g>
</svg>
