<svg xmlns="http://www.w3.org/2000/svg" role="img" viewBox="0 0 1440 344" width="1440" height="344" data-renderer-version="0.2.2" data-theme-version="0.2.0" data-layout-version="0.2.0">
  <title>SUPPLEMENTAL ID KEY CLAUSE</title>
  <desc>Interactive SQL BNF diagram for SUPPLEMENTAL ID KEY CLAUSE. Blue symbols link to supporting components.</desc>
  <style>
    .background { fill: #ffffff; }
    .frame { fill: #f8fafc; stroke: #cbd5e1; stroke-width: 1.25; }
    .title-band { fill: #111827; }
    .component-title { fill: #ffffff; font: 700 20px Arial, sans-serif; }
    .component-subtitle { fill: #d1d5db; font: 12px Arial, sans-serif; }
    .rail { stroke: #9ca3af; stroke-width: 1.35; }
    .line-number { fill: #64748b; font: 12px Arial, sans-serif; }
    .token { stroke-width: 1.25; }
    .token-label { fill: #111827; font: 13px Arial, sans-serif; pointer-events: none; }
    .token-keyword { fill: #f1f5f9; stroke: #64748b; }
    .token-reference { fill: #dbeafe; stroke: #2563eb; }
    .token-variable { fill: #fff7ed; stroke: #c2410c; }
    .token-literal { fill: #ecfdf5; stroke: #047857; }
    .token-operator { fill: #ffffff; stroke: #94a3b8; }
    .component-link:hover .token-reference { fill: #bfdbfe; stroke: #1d4ed8; }
    .truncated { fill: #9f1239; font: 13px Arial, sans-serif; }
  </style>
  <rect class="background" x="0" y="0" width="1440" height="344"/>
  <rect class="frame" x="12" y="12" width="1416" height="320" rx="6"/>
  <rect class="title-band" x="12" y="12" width="1416" height="50" rx="6"/>
  <text class="component-title" x="28" y="40">SUPPLEMENTAL ID KEY CLAUSE</text>
  <text class="component-subtitle" x="1412" y="40" text-anchor="end">5 syntax lines · 0 references</text>
  <text class="line-number" x="28" y="114" text-anchor="start">1</text>
<line class="rail" x1="48" y1="109" x2="1412" y2="109"/>
<g id="tok-1-1" class="token-group" data-kind="keyword"><title>DATA</title><rect class="token token-keyword" x="76" y="94" width="54" height="30" rx="4"/><text class="token-label" x="103.0" y="114" text-anchor="middle">DATA</text></g>
<text class="line-number" x="28" y="160" text-anchor="start">2</text>
<line class="rail" x1="48" y1="155" x2="1412" y2="155"/>
<g id="tok-2-2" class="token-group" data-kind="operator"><title>(</title><rect class="token token-operator" x="76" y="140" width="38" height="30" rx="4"/><text class="token-label" x="95.0" y="160" text-anchor="middle">(</text></g>
<g id="tok-2-3" class="token-group" data-kind="operator"><title>{</title><rect class="token token-operator" x="122" y="140" width="38" height="30" rx="4"/><text class="token-label" x="141.0" y="160" text-anchor="middle">{</text></g>
<g id="tok-2-4" class="token-group" data-kind="keyword"><title>ALL</title><rect class="token token-keyword" x="168" y="140" width="54" height="30" rx="4"/><text class="token-label" x="195.0" y="160" text-anchor="middle">ALL</text></g>
<g id="tok-2-5" class="token-group" data-kind="operator"><title>|</title><rect class="token token-operator" x="230" y="140" width="34" height="30" rx="4"/><text class="token-label" x="247.0" y="160" text-anchor="middle">|</text></g>
<g id="tok-2-6" class="token-group" data-kind="keyword"><title>PRIMARY</title><rect class="token token-keyword" x="272" y="140" width="72" height="30" rx="4"/><text class="token-label" x="308.0" y="160" text-anchor="middle">PRIMARY</text></g>
<g id="tok-2-7" class="token-group" data-kind="keyword"><title>KEY</title><rect class="token token-keyword" x="352" y="140" width="54" height="30" rx="4"/><text class="token-label" x="379.0" y="160" text-anchor="middle">KEY</text></g>
<g id="tok-2-8" class="token-group" data-kind="operator"><title>|</title><rect class="token token-operator" x="414" y="140" width="34" height="30" rx="4"/><text class="token-label" x="431.0" y="160" text-anchor="middle">|</text></g>
<g id="tok-2-9" class="token-group" data-kind="keyword"><title>UNIQUE</title><rect class="token token-keyword" x="456" y="140" width="64" height="30" rx="4"/><text class="token-label" x="488.0" y="160" text-anchor="middle">UNIQUE</text></g>
<g id="tok-2-10" class="token-group" data-kind="operator"><title>|</title><rect class="token token-operator" x="528" y="140" width="34" height="30" rx="4"/><text class="token-label" x="545.0" y="160" text-anchor="middle">|</text></g>
<g id="tok-2-11" class="token-group" data-kind="keyword"><title>FOREIGN</title><rect class="token token-keyword" x="570" y="140" width="72" height="30" rx="4"/><text class="token-label" x="606.0" y="160" text-anchor="middle">FOREIGN</text></g>
<g id="tok-2-12" class="token-group" data-kind="keyword"><title>KEY</title><rect class="token token-keyword" x="650" y="140" width="54" height="30" rx="4"/><text class="token-label" x="677.0" y="160" text-anchor="middle">KEY</text></g>
<g id="tok-2-13" class="token-group" data-kind="operator"><title>}</title><rect class="token token-operator" x="712" y="140" width="38" height="30" rx="4"/><text class="token-label" x="731.0" y="160" text-anchor="middle">}</text></g>
<text class="line-number" x="28" y="206" text-anchor="start">3</text>
<line class="rail" x1="48" y1="201" x2="1412" y2="201"/>
<g id="tok-3-14" class="token-group" data-kind="operator"><title>[</title><rect class="token token-operator" x="132" y="186" width="38" height="30" rx="4"/><text class="token-label" x="151.0" y="206" text-anchor="middle">[</text></g>
<g id="tok-3-15" class="token-group" data-kind="operator"><title>,</title><rect class="token token-operator" x="178" y="186" width="34" height="30" rx="4"/><text class="token-label" x="195.0" y="206" text-anchor="middle">,</text></g>
<g id="tok-3-16" class="token-group" data-kind="operator"><title>{</title><rect class="token token-operator" x="220" y="186" width="38" height="30" rx="4"/><text class="token-label" x="239.0" y="206" text-anchor="middle">{</text></g>
<g id="tok-3-17" class="token-group" data-kind="keyword"><title>ALL</title><rect class="token token-keyword" x="266" y="186" width="54" height="30" rx="4"/><text class="token-label" x="293.0" y="206" text-anchor="middle">ALL</text></g>
<g id="tok-3-18" class="token-group" data-kind="operator"><title>|</title><rect class="token token-operator" x="328" y="186" width="34" height="30" rx="4"/><text class="token-label" x="345.0" y="206" text-anchor="middle">|</text></g>
<g id="tok-3-19" class="token-group" data-kind="keyword"><title>PRIMARY</title><rect class="token token-keyword" x="370" y="186" width="72" height="30" rx="4"/><text class="token-label" x="406.0" y="206" text-anchor="middle">PRIMARY</text></g>
<g id="tok-3-20" class="token-group" data-kind="keyword"><title>KEY</title><rect class="token token-keyword" x="450" y="186" width="54" height="30" rx="4"/><text class="token-label" x="477.0" y="206" text-anchor="middle">KEY</text></g>
<g id="tok-3-21" class="token-group" data-kind="operator"><title>|</title><rect class="token token-operator" x="512" y="186" width="34" height="30" rx="4"/><text class="token-label" x="529.0" y="206" text-anchor="middle">|</text></g>
<g id="tok-3-22" class="token-group" data-kind="keyword"><title>UNIQUE</title><rect class="token token-keyword" x="554" y="186" width="64" height="30" rx="4"/><text class="token-label" x="586.0" y="206" text-anchor="middle">UNIQUE</text></g>
<g id="tok-3-23" class="token-group" data-kind="operator"><title>|</title><rect class="token token-operator" x="626" y="186" width="34" height="30" rx="4"/><text class="token-label" x="643.0" y="206" text-anchor="middle">|</text></g>
<g id="tok-3-24" class="token-group" data-kind="keyword"><title>FOREIGN</title><rect class="token token-keyword" x="668" y="186" width="72" height="30" rx="4"/><text class="token-label" x="704.0" y="206" text-anchor="middle">FOREIGN</text></g>
<g id="tok-3-25" class="token-group" data-kind="keyword"><title>KEY</title><rect class="token token-keyword" x="748" y="186" width="54" height="30" rx="4"/><text class="token-label" x="775.0" y="206" text-anchor="middle">KEY</text></g>
<g id="tok-3-26" class="token-group" data-kind="operator"><title>}</title><rect class="token token-operator" x="810" y="186" width="38" height="30" rx="4"/><text class="token-label" x="829.0" y="206" text-anchor="middle">}</text></g>
<g id="tok-3-27" class="token-group" data-kind="operator"><title>]</title><rect class="token token-operator" x="856" y="186" width="38" height="30" rx="4"/><text class="token-label" x="875.0" y="206" text-anchor="middle">]</text></g>
<g id="tok-3-28" class="token-group" data-kind="operator"><title>.</title><rect class="token token-operator" x="902" y="186" width="34" height="30" rx="4"/><text class="token-label" x="919.0" y="206" text-anchor="middle">.</text></g>
<g id="tok-3-29" class="token-group" data-kind="operator"><title>.</title><rect class="token token-operator" x="944" y="186" width="34" height="30" rx="4"/><text class="token-label" x="961.0" y="206" text-anchor="middle">.</text></g>
<g id="tok-3-30" class="token-group" data-kind="operator"><title>.</title><rect class="token token-operator" x="986" y="186" width="34" height="30" rx="4"/><text class="token-label" x="1003.0" y="206" text-anchor="middle">.</text></g>
<text class="line-number" x="28" y="252" text-anchor="start">4</text>
<line class="rail" x1="48" y1="247" x2="1412" y2="247"/>
<g id="tok-4-31" class="token-group" data-kind="operator"><title>)</title><rect class="token token-operator" x="76" y="232" width="38" height="30" rx="4"/><text class="token-label" x="95.0" y="252" text-anchor="middle">)</text></g>
<text class="line-number" x="28" y="298" text-anchor="start">5</text>
<line class="rail" x1="48" y1="293" x2="1412" y2="293"/>
<g id="tok-5-32" class="token-group" data-kind="keyword"><title>COLUMNS</title><rect class="token token-keyword" x="76" y="278" width="72" height="30" rx="4"/><text class="token-label" x="112.0" y="298" text-anchor="middle">COLUMNS</text></g>
</svg>
