<svg xmlns="http://www.w3.org/2000/svg" role="img" viewBox="0 0 1440 252" width="1440" height="252" data-renderer-version="0.2.2" data-theme-version="0.2.0" data-layout-version="0.2.0">
  <title>RENAME DISK CLAUSE</title>
  <desc>Interactive SQL BNF diagram for RENAME DISK CLAUSE. Blue symbols link to supporting components.</desc>
  <style>
    .background { fill: #ffffff; }
    .frame { fill: #f8fafc; stroke: #cbd5e1; stroke-width: 1.25; }
    .title-band { fill: #111827; }
    .component-title { fill: #ffffff; font: 700 20px Arial, sans-serif; }
    .component-subtitle { fill: #d1d5db; font: 12px Arial, sans-serif; }
    .rail { stroke: #9ca3af; stroke-width: 1.35; }
    .line-number { fill: #64748b; font: 12px Arial, sans-serif; }
    .token { stroke-width: 1.25; }
    .token-label { fill: #111827; font: 13px Arial, sans-serif; pointer-events: none; }
    .token-keyword { fill: #f1f5f9; stroke: #64748b; }
    .token-reference { fill: #dbeafe; stroke: #2563eb; }
    .token-variable { fill: #fff7ed; stroke: #c2410c; }
    .token-literal { fill: #ecfdf5; stroke: #047857; }
    .token-operator { fill: #ffffff; stroke: #94a3b8; }
    .component-link:hover .token-reference { fill: #bfdbfe; stroke: #1d4ed8; }
    .truncated { fill: #9f1239; font: 13px Arial, sans-serif; }
  </style>
  <rect class="background" x="0" y="0" width="1440" height="252"/>
  <rect class="frame" x="12" y="12" width="1416" height="228" rx="6"/>
  <rect class="title-band" x="12" y="12" width="1416" height="50" rx="6"/>
  <text class="component-title" x="28" y="40">RENAME DISK CLAUSE</text>
  <text class="component-subtitle" x="1412" y="40" text-anchor="end">3 syntax lines · 0 references</text>
  <text class="line-number" x="28" y="114" text-anchor="start">1</text>
<line class="rail" x1="48" y1="109" x2="1412" y2="109"/>
<g id="tok-1-1" class="token-group" data-kind="keyword"><title>RENAME</title><rect class="token token-keyword" x="76" y="94" width="64" height="30" rx="4"/><text class="token-label" x="108.0" y="114" text-anchor="middle">RENAME</text></g>
<text class="line-number" x="28" y="160" text-anchor="start">2</text>
<line class="rail" x1="48" y1="155" x2="1412" y2="155"/>
<g id="tok-2-2" class="token-group" data-kind="operator"><title>{</title><rect class="token token-operator" x="104" y="140" width="38" height="30" rx="4"/><text class="token-label" x="123.0" y="160" text-anchor="middle">{</text></g>
<g id="tok-2-3" class="token-group" data-kind="keyword"><title>DISK</title><rect class="token token-keyword" x="150" y="140" width="54" height="30" rx="4"/><text class="token-label" x="177.0" y="160" text-anchor="middle">DISK</text></g>
<g id="tok-2-4" class="token-group" data-kind="variable"><title>old_disk_name</title><rect class="token token-variable" x="212" y="140" width="120" height="30" rx="4"/><text class="token-label" x="272.0" y="160" text-anchor="middle">old_disk_name</text></g>
<g id="tok-2-5" class="token-group" data-kind="keyword"><title>TO</title><rect class="token token-keyword" x="340" y="140" width="54" height="30" rx="4"/><text class="token-label" x="367.0" y="160" text-anchor="middle">TO</text></g>
<g id="tok-2-6" class="token-group" data-kind="variable"><title>new_disk_name</title><rect class="token token-variable" x="402" y="140" width="120" height="30" rx="4"/><text class="token-label" x="462.0" y="160" text-anchor="middle">new_disk_name</text></g>
<g id="tok-2-7" class="token-group" data-kind="operator"><title>[</title><rect class="token token-operator" x="530" y="140" width="38" height="30" rx="4"/><text class="token-label" x="549.0" y="160" text-anchor="middle">[</text></g>
<g id="tok-2-8" class="token-group" data-kind="operator"><title>,</title><rect class="token token-operator" x="576" y="140" width="34" height="30" rx="4"/><text class="token-label" x="593.0" y="160" text-anchor="middle">,</text></g>
<g id="tok-2-9" class="token-group" data-kind="variable"><title>old_disk_name</title><rect class="token token-variable" x="618" y="140" width="120" height="30" rx="4"/><text class="token-label" x="678.0" y="160" text-anchor="middle">old_disk_name</text></g>
<g id="tok-2-10" class="token-group" data-kind="keyword"><title>TO</title><rect class="token token-keyword" x="746" y="140" width="54" height="30" rx="4"/><text class="token-label" x="773.0" y="160" text-anchor="middle">TO</text></g>
<g id="tok-2-11" class="token-group" data-kind="variable"><title>new_disk_name</title><rect class="token token-variable" x="808" y="140" width="120" height="30" rx="4"/><text class="token-label" x="868.0" y="160" text-anchor="middle">new_disk_name</text></g>
<g id="tok-2-12" class="token-group" data-kind="operator"><title>]</title><rect class="token token-operator" x="936" y="140" width="38" height="30" rx="4"/><text class="token-label" x="955.0" y="160" text-anchor="middle">]</text></g>
<g id="tok-2-13" class="token-group" data-kind="operator"><title>.</title><rect class="token token-operator" x="982" y="140" width="34" height="30" rx="4"/><text class="token-label" x="999.0" y="160" text-anchor="middle">.</text></g>
<g id="tok-2-14" class="token-group" data-kind="operator"><title>.</title><rect class="token token-operator" x="1024" y="140" width="34" height="30" rx="4"/><text class="token-label" x="1041.0" y="160" text-anchor="middle">.</text></g>
<g id="tok-2-15" class="token-group" data-kind="operator"><title>.</title><rect class="token token-operator" x="1066" y="140" width="34" height="30" rx="4"/><text class="token-label" x="1083.0" y="160" text-anchor="middle">.</text></g>
<text class="line-number" x="28" y="206" text-anchor="start">3</text>
<line class="rail" x1="48" y1="201" x2="1412" y2="201"/>
<g id="tok-3-16" class="token-group" data-kind="operator"><title>|</title><rect class="token token-operator" x="104" y="186" width="34" height="30" rx="4"/><text class="token-label" x="121.0" y="206" text-anchor="middle">|</text></g>
<g id="tok-3-17" class="token-group" data-kind="keyword"><title>DISKS</title><rect class="token token-keyword" x="146" y="186" width="56" height="30" rx="4"/><text class="token-label" x="174.0" y="206" text-anchor="middle">DISKS</text></g>
<g id="tok-3-18" class="token-group" data-kind="keyword"><title>ALL</title><rect class="token token-keyword" x="210" y="186" width="54" height="30" rx="4"/><text class="token-label" x="237.0" y="206" text-anchor="middle">ALL</text></g>
<g id="tok-3-19" class="token-group" data-kind="operator"><title>}</title><rect class="token token-operator" x="272" y="186" width="38" height="30" rx="4"/><text class="token-label" x="291.0" y="206" text-anchor="middle">}</text></g>
</svg>
