<svg xmlns="http://www.w3.org/2000/svg" role="img" viewBox="0 0 1440 252" width="1440" height="252" data-renderer-version="0.2.2" data-theme-version="0.2.0" data-layout-version="0.2.0">
  <title>ADD VOLUME CLAUSE</title>
  <desc>Interactive SQL BNF diagram for ADD VOLUME CLAUSE. Blue symbols link to supporting components.</desc>
  <style>
    .background { fill: #ffffff; }
    .frame { fill: #f8fafc; stroke: #cbd5e1; stroke-width: 1.25; }
    .title-band { fill: #111827; }
    .component-title { fill: #ffffff; font: 700 20px Arial, sans-serif; }
    .component-subtitle { fill: #d1d5db; font: 12px Arial, sans-serif; }
    .rail { stroke: #9ca3af; stroke-width: 1.35; }
    .line-number { fill: #64748b; font: 12px Arial, sans-serif; }
    .token { stroke-width: 1.25; }
    .token-label { fill: #111827; font: 13px Arial, sans-serif; pointer-events: none; }
    .token-keyword { fill: #f1f5f9; stroke: #64748b; }
    .token-reference { fill: #dbeafe; stroke: #2563eb; }
    .token-variable { fill: #fff7ed; stroke: #c2410c; }
    .token-literal { fill: #ecfdf5; stroke: #047857; }
    .token-operator { fill: #ffffff; stroke: #94a3b8; }
    .component-link:hover .token-reference { fill: #bfdbfe; stroke: #1d4ed8; }
    .truncated { fill: #9f1239; font: 13px Arial, sans-serif; }
  </style>
  <rect class="background" x="0" y="0" width="1440" height="252"/>
  <rect class="frame" x="12" y="12" width="1416" height="228" rx="6"/>
  <rect class="title-band" x="12" y="12" width="1416" height="50" rx="6"/>
  <text class="component-title" x="28" y="40">ADD VOLUME CLAUSE</text>
  <text class="component-subtitle" x="1412" y="40" text-anchor="end">3 syntax lines · 2 references</text>
  <text class="line-number" x="28" y="114" text-anchor="start">1</text>
<line class="rail" x1="48" y1="109" x2="1412" y2="109"/>
<g id="tok-1-1" class="token-group" data-kind="keyword"><title>ADD</title><rect class="token token-keyword" x="76" y="94" width="54" height="30" rx="4"/><text class="token-label" x="103.0" y="114" text-anchor="middle">ADD</text></g>
<g id="tok-1-2" class="token-group" data-kind="keyword"><title>VOLUME</title><rect class="token token-keyword" x="138" y="94" width="64" height="30" rx="4"/><text class="token-label" x="170.0" y="114" text-anchor="middle">VOLUME</text></g>
<g id="tok-1-3" class="token-group" data-kind="variable"><title>asm_volume</title><rect class="token token-variable" x="210" y="94" width="96" height="30" rx="4"/><text class="token-label" x="258.0" y="114" text-anchor="middle">asm_volume</text></g>
<g id="tok-1-4" class="token-group" data-kind="keyword"><title>SIZE</title><rect class="token token-keyword" x="314" y="94" width="54" height="30" rx="4"/><text class="token-label" x="341.0" y="114" text-anchor="middle">SIZE</text></g>
<a href="components/size-clause.html" target="_parent" class="component-link"><g id="tok-1-5" class="token-group" data-kind="reference"><title>SIZE CLAUSE</title><rect class="token token-reference" x="376" y="94" width="104" height="30" rx="4"/><text class="token-label" x="428.0" y="114" text-anchor="middle">size_clause</text></g></a>
<g id="tok-1-6" class="token-group" data-kind="operator"><title>[</title><rect class="token token-operator" x="488" y="94" width="38" height="30" rx="4"/><text class="token-label" x="507.0" y="114" text-anchor="middle">[</text></g>
<a href="components/redundancy-clause.html" target="_parent" class="component-link"><g id="tok-1-7" class="token-group" data-kind="reference"><title>REDUNDANCY CLAUSE</title><rect class="token token-reference" x="534" y="94" width="152" height="30" rx="4"/><text class="token-label" x="610.0" y="114" text-anchor="middle">redundancy_clause</text></g></a>
<g id="tok-1-8" class="token-group" data-kind="operator"><title>]</title><rect class="token token-operator" x="694" y="94" width="38" height="30" rx="4"/><text class="token-label" x="713.0" y="114" text-anchor="middle">]</text></g>
<text class="line-number" x="28" y="160" text-anchor="start">2</text>
<line class="rail" x1="48" y1="155" x2="1412" y2="155"/>
<g id="tok-2-9" class="token-group" data-kind="operator"><title>[</title><rect class="token token-operator" x="104" y="140" width="38" height="30" rx="4"/><text class="token-label" x="123.0" y="160" text-anchor="middle">[</text></g>
<g id="tok-2-10" class="token-group" data-kind="keyword"><title>STRIPE_WIDTH</title><rect class="token token-keyword" x="150" y="140" width="112" height="30" rx="4"/><text class="token-label" x="206.0" y="160" text-anchor="middle">STRIPE_WIDTH</text></g>
<g id="tok-2-11" class="token-group" data-kind="variable"><title>integer</title><rect class="token token-variable" x="270" y="140" width="72" height="30" rx="4"/><text class="token-label" x="306.0" y="160" text-anchor="middle">integer</text></g>
<g id="tok-2-12" class="token-group" data-kind="operator"><title>{</title><rect class="token token-operator" x="350" y="140" width="38" height="30" rx="4"/><text class="token-label" x="369.0" y="160" text-anchor="middle">{</text></g>
<g id="tok-2-13" class="token-group" data-kind="keyword"><title>K</title><rect class="token token-keyword" x="396" y="140" width="54" height="30" rx="4"/><text class="token-label" x="423.0" y="160" text-anchor="middle">K</text></g>
<g id="tok-2-14" class="token-group" data-kind="operator"><title>|</title><rect class="token token-operator" x="458" y="140" width="34" height="30" rx="4"/><text class="token-label" x="475.0" y="160" text-anchor="middle">|</text></g>
<g id="tok-2-15" class="token-group" data-kind="keyword"><title>M</title><rect class="token token-keyword" x="500" y="140" width="54" height="30" rx="4"/><text class="token-label" x="527.0" y="160" text-anchor="middle">M</text></g>
<g id="tok-2-16" class="token-group" data-kind="operator"><title>}</title><rect class="token token-operator" x="562" y="140" width="38" height="30" rx="4"/><text class="token-label" x="581.0" y="160" text-anchor="middle">}</text></g>
<g id="tok-2-17" class="token-group" data-kind="operator"><title>]</title><rect class="token token-operator" x="608" y="140" width="38" height="30" rx="4"/><text class="token-label" x="627.0" y="160" text-anchor="middle">]</text></g>
<text class="line-number" x="28" y="206" text-anchor="start">3</text>
<line class="rail" x1="48" y1="201" x2="1412" y2="201"/>
<g id="tok-3-18" class="token-group" data-kind="operator"><title>[</title><rect class="token token-operator" x="104" y="186" width="38" height="30" rx="4"/><text class="token-label" x="123.0" y="206" text-anchor="middle">[</text></g>
<g id="tok-3-19" class="token-group" data-kind="keyword"><title>STRIPE_COLUMNS</title><rect class="token token-keyword" x="150" y="186" width="128" height="30" rx="4"/><text class="token-label" x="214.0" y="206" text-anchor="middle">STRIPE_COLUMNS</text></g>
<g id="tok-3-20" class="token-group" data-kind="variable"><title>integer</title><rect class="token token-variable" x="286" y="186" width="72" height="30" rx="4"/><text class="token-label" x="322.0" y="206" text-anchor="middle">integer</text></g>
<g id="tok-3-21" class="token-group" data-kind="operator"><title>]</title><rect class="token token-operator" x="366" y="186" width="38" height="30" rx="4"/><text class="token-label" x="385.0" y="206" text-anchor="middle">]</text></g>
</svg>
